<?xml version="1.0" encoding="UTF-8"?>
<svg id="b" data-name="Layer 2" xmlns="http://www.w3.org/2000/svg" width="882.211" height="884.37" viewBox="0 0 882.211 884.37">
  <g id="c" data-name="Layer 2">
    <path d="m440.638,884.37c-59.479,0-117.188-11.652-171.521-34.634-52.473-22.193-99.595-53.963-140.058-94.426s-72.232-87.585-94.426-140.057C11.653,560.92,0,503.213,0,443.733s11.652-117.188,34.634-171.521c22.193-52.473,53.963-99.595,94.426-140.058s87.585-72.232,140.058-94.426C323.45,14.748,381.158,3.096,440.638,3.096s117.188,11.652,171.521,34.634c52.473,22.193,99.595,53.963,140.058,94.426s72.232,87.585,94.426,140.058c22.981,54.333,34.634,112.041,34.634,171.521s-11.652,117.187-34.634,171.521c-22.193,52.472-53.963,99.594-94.426,140.057s-87.585,72.232-140.058,94.426c-54.333,22.981-112.041,34.634-171.521,34.634Zm0-852.274C213.66,32.096,29,216.756,29,443.733s184.66,411.637,411.638,411.637,411.638-184.659,411.638-411.637S667.615,32.096,440.638,32.096Z" stroke-width="0"/>
    <path d="m441.498,767.236c-86.411,0-167.65-33.65-228.752-94.752s-94.752-142.34-94.752-228.751,33.65-167.65,94.752-228.752,142.341-94.752,228.752-94.752,167.649,33.65,228.751,94.752,94.752,142.341,94.752,228.752-33.65,167.649-94.752,228.751-142.341,94.752-228.751,94.752Zm0-618.007c-162.39,0-294.504,132.114-294.504,294.504s132.114,294.503,294.504,294.503,294.503-132.113,294.503-294.503-132.113-294.504-294.503-294.504Z" stroke-width="0"/>
    <path d="m867.711,884.37c-3.716,0-7.431-1.419-10.264-4.258L4.237,25.139c-5.656-5.668-5.647-14.849.021-20.506,5.669-5.656,14.849-5.648,20.506.021l853.211,854.974c5.656,5.668,5.647,14.849-.021,20.506-2.83,2.824-6.537,4.236-10.242,4.236Z" stroke-width="0"/>
    <path d="m14.5,883.036c-3.706,0-7.412-1.412-10.242-4.236-5.669-5.657-5.679-14.838-.021-20.506L856.512,4.258c5.656-5.669,14.838-5.678,20.506-.021,5.669,5.657,5.679,14.838.021,20.506L24.764,878.778c-2.832,2.838-6.548,4.258-10.264,4.258Z" stroke-width="0"/>
  </g>
</svg>