<?xml version="1.0" encoding="UTF-8"?>
<svg id="b" data-name="Layer 2" xmlns="http://www.w3.org/2000/svg" width="116.713mm" height="29.386mm" viewBox="0 0 330.84 83.299">
  <g id="c" data-name="Layer 1">
    <g>
      <path d="m0,.214h10.693c-.012.309-.021.693-.027,1.149-.007.458-.009.906-.009,1.346,0,.404.003.843.009,1.318.006.476.015.904.027,1.284-.654-.024-1.299-.038-1.934-.045-.636-.006-1.242-.012-1.818-.017s-1.108-.009-1.595-.009c-.737,0-1.566.004-2.487.009s-1.874.027-2.86.062c.024-.368.036-.79.036-1.265V1.363C.036.906.024.523,0,.214Zm2.442,2.424h5.828v2.406c0,.784.003,1.553.009,2.308.007.754.009,1.467.009,2.139s.009,1.28.027,1.827c.017.547.026,1.016.026,1.408s.007.684.018.874c-.262-.024-.57-.042-.927-.054-.356-.012-.716-.015-1.078-.009-.363.006-.698.009-1.007.009-.297,0-.633-.003-1.007-.009-.374-.007-.73-.003-1.069.009s-.65.03-.936.054c0-.178.006-.466.018-.864.012-.398.018-.867.018-1.408s.006-1.149.017-1.827.024-1.393.036-2.147c.012-.755.018-1.533.018-2.335v-2.379Z" fill="#fff" stroke-width="0"/>
      <path d="m17.305,13.58h-5.561c.012-.642.024-1.295.036-1.96.012-.666.018-1.384.018-2.157v-2.566c0-1.414-.003-2.643-.009-3.689-.007-1.046-.021-2.044-.045-2.994h5.561c-.012.357-.021.764-.027,1.22-.006.458-.012.927-.018,1.408-.006.482-.009.959-.009,1.434v2.513l-.57-2.086c.261.012.549.024.864.036.315.012.627.018.935.018.321,0,.638-.006.954-.018.315-.012.608-.023.882-.036l-.57,2.086v-1.141c0-.439-.007-.897-.018-1.373-.012-.475-.021-.956-.027-1.443s-.012-.957-.017-1.408c-.007-.451-.015-.855-.027-1.212h5.578c-.024.951-.041,1.949-.054,2.994-.012,1.046-.017,2.275-.017,3.689,0,.938.003,1.791.009,2.558.006.766.015,1.482.027,2.147.012.666.024,1.325.036,1.978h-5.578c.012-.368.02-.781.027-1.239.006-.458.012-.921.017-1.39s.015-.944.027-1.426.018-.93.018-1.346v-1.14l.57,2.103c-.261-.024-.553-.038-.873-.045-.321-.006-.642-.009-.962-.009-.309,0-.621.003-.935.009-.315.007-.603.021-.864.045l.57-2.103v2.477c0,.475.003.953.009,1.434.007.482.012.945.018,1.39s.015.859.027,1.239Z" fill="#fff" stroke-width="0"/>
      <path d="m32.344,13.58h-5.685c.036-.475.057-.959.062-1.453s.009-1.009.009-1.55V3.199c0-.54-.003-1.054-.009-1.541s-.027-.969-.062-1.444h5.685c0,.475-.003.957-.009,1.444-.007.487-.015.998-.027,1.532-.012.534-.018,1.105-.018,1.711v3.939c0,.594.006,1.168.018,1.719.012.553.023,1.075.036,1.569.012.493.012.978,0,1.453Z" fill="#fff" stroke-width="0"/>
      <path d="m39.259,10.64c.238,0,.434-.015.588-.044s.276-.08.365-.152c.089-.072.154-.161.197-.268.041-.107.062-.232.062-.374,0-.143-.015-.276-.045-.401s-.089-.238-.178-.339c-.088-.101-.226-.196-.41-.285s-.404-.17-.659-.241c-.256-.071-.574-.131-.954-.178-.796-.083-1.47-.217-2.023-.401s-1.007-.392-1.363-.624c-.357-.231-.633-.508-.829-.829-.197-.321-.33-.679-.401-1.078-.071-.397-.107-.828-.107-1.292,0-.748.122-1.379.365-1.889.244-.511.603-.936,1.078-1.275.475-.338,1.099-.584,1.872-.739.772-.154,1.698-.232,2.78-.232.962,0,1.794.048,2.495.143s1.28.234,1.738.418.823.422,1.096.713c.273.292.46.633.561,1.025.101.392.152.838.152,1.337,0,.095-.004.19-.009.285s-.003.193.009.294c.012.102.012.205,0,.312-.249-.023-.535-.047-.856-.071s-.656-.038-1.007-.044c-.35-.006-.698-.009-1.042-.009h-.838c-.262,0-.482.018-.66.054.012-.047.018-.112.018-.196v-.16c0-.154-.018-.294-.054-.419s-.101-.231-.196-.321-.229-.149-.401-.178c-.173-.03-.389-.045-.65-.045-.226,0-.407.009-.544.027-.136.018-.247.062-.329.134-.083.071-.137.152-.16.24-.025.089-.036.194-.036.313,0,.154.012.285.036.392.023.107.077.214.16.321.083.107.21.205.383.294.172.089.404.17.695.241.291.071.65.154,1.078.249.903.142,1.649.318,2.237.526s1.054.479,1.399.811c.344.333.588.748.731,1.247.142.5.213,1.088.213,1.764,0,.547-.059,1.046-.178,1.497-.119.452-.333.84-.642,1.168-.309.326-.695.6-1.159.819-.463.22-1.039.383-1.728.49-.69.107-1.492.16-2.406.16-.986,0-1.83-.044-2.531-.133s-1.289-.226-1.764-.41c-.475-.183-.846-.424-1.114-.722-.268-.297-.463-.642-.588-1.033-.125-.392-.187-.862-.187-1.408,0-.095.006-.207.018-.339.012-.131.017-.247.017-.347s.006-.217.018-.347c.416.036.9.068,1.453.098s1.107.044,1.666.044c.237,0,.478-.002.722-.009.243-.006.442-.015.597-.027-.012.048-.017.107-.017.178v.16c0,.262.041.479.125.65.083.173.216.292.401.357.183.065.43.098.739.098Z" fill="#fff" stroke-width="0"/>
      <path d="m56.868,13.58h-5.685c.036-.475.057-.959.062-1.453s.009-1.009.009-1.55V3.199c0-.54-.003-1.054-.009-1.541s-.027-.969-.062-1.444h5.685c0,.475-.003.957-.009,1.444-.007.487-.015.998-.027,1.532-.012.534-.018,1.105-.018,1.711v3.939c0,.594.006,1.168.018,1.719.012.553.023,1.075.036,1.569.012.493.012.978,0,1.453Z" fill="#fff" stroke-width="0"/>
      <path d="m63.782,10.64c.238,0,.434-.015.588-.044s.276-.08.365-.152c.089-.072.154-.161.197-.268.041-.107.062-.232.062-.374,0-.143-.015-.276-.045-.401s-.089-.238-.178-.339c-.088-.101-.226-.196-.41-.285s-.404-.17-.659-.241c-.256-.071-.574-.131-.954-.178-.796-.083-1.47-.217-2.023-.401s-1.007-.392-1.363-.624c-.357-.231-.633-.508-.829-.829-.197-.321-.33-.679-.401-1.078-.071-.397-.107-.828-.107-1.292,0-.748.122-1.379.365-1.889.244-.511.603-.936,1.078-1.275.475-.338,1.099-.584,1.872-.739.772-.154,1.698-.232,2.78-.232.962,0,1.794.048,2.495.143s1.28.234,1.738.418.823.422,1.096.713c.273.292.46.633.561,1.025.101.392.152.838.152,1.337,0,.095-.004.19-.009.285s-.003.193.009.294c.012.102.012.205,0,.312-.249-.023-.535-.047-.856-.071s-.656-.038-1.007-.044c-.35-.006-.698-.009-1.042-.009h-.838c-.262,0-.482.018-.66.054.012-.047.018-.112.018-.196v-.16c0-.154-.018-.294-.054-.419s-.101-.231-.196-.321-.229-.149-.401-.178c-.173-.03-.389-.045-.65-.045-.226,0-.407.009-.544.027-.136.018-.247.062-.329.134-.083.071-.137.152-.16.24-.025.089-.036.194-.036.313,0,.154.012.285.036.392.023.107.077.214.16.321.083.107.21.205.383.294.172.089.404.17.695.241.291.071.65.154,1.078.249.903.142,1.649.318,2.237.526s1.054.479,1.399.811c.344.333.588.748.731,1.247.142.5.213,1.088.213,1.764,0,.547-.059,1.046-.178,1.497-.119.452-.333.84-.642,1.168-.309.326-.695.6-1.159.819-.463.22-1.039.383-1.728.49-.69.107-1.492.16-2.406.16-.986,0-1.83-.044-2.531-.133s-1.289-.226-1.764-.41c-.475-.183-.846-.424-1.114-.722-.268-.297-.463-.642-.588-1.033-.125-.392-.187-.862-.187-1.408,0-.095.006-.207.018-.339.012-.131.017-.247.017-.347s.006-.217.018-.347c.416.036.9.068,1.453.098s1.107.044,1.666.044c.237,0,.478-.002.722-.009.243-.006.442-.015.597-.027-.012.048-.017.107-.017.178v.16c0,.262.041.479.125.65.083.173.216.292.401.357.183.065.43.098.739.098Z" fill="#fff" stroke-width="0"/>
      <path d="m75.171.214h10.693c-.012.309-.021.693-.027,1.149-.007.458-.009.906-.009,1.346,0,.404.003.843.009,1.318.006.476.015.904.027,1.284-.654-.024-1.299-.038-1.934-.045-.636-.006-1.242-.012-1.818-.017s-1.108-.009-1.595-.009c-.737,0-1.566.004-2.487.009s-1.874.027-2.86.062c.024-.368.036-.79.036-1.265V1.363c0-.457-.012-.84-.036-1.149Zm2.442,2.424h5.828v2.406c0,.784.003,1.553.009,2.308.007.754.009,1.467.009,2.139s.009,1.28.027,1.827c.017.547.026,1.016.026,1.408s.007.684.018.874c-.262-.024-.57-.042-.927-.054-.356-.012-.716-.015-1.078-.009-.363.006-.698.009-1.007.009-.297,0-.633-.003-1.007-.009-.374-.007-.73-.003-1.069.009s-.65.03-.936.054c0-.178.006-.466.018-.864.012-.398.018-.867.018-1.408s.006-1.149.017-1.827.024-1.393.036-2.147c.012-.755.018-1.533.018-2.335v-2.379Z" fill="#fff" stroke-width="0"/>
      <path d="m92.476,13.58h-5.561c.012-.642.024-1.295.036-1.96.012-.666.018-1.384.018-2.157v-2.566c0-1.414-.003-2.643-.009-3.689-.007-1.046-.021-2.044-.045-2.994h5.561c-.012.357-.021.764-.027,1.22-.006.458-.012.927-.018,1.408-.006.482-.009.959-.009,1.434v2.513l-.57-2.086c.261.012.549.024.864.036.315.012.627.018.935.018.321,0,.638-.006.954-.018.315-.012.608-.023.882-.036l-.57,2.086v-1.141c0-.439-.007-.897-.018-1.373-.012-.475-.021-.956-.027-1.443s-.012-.957-.017-1.408c-.007-.451-.015-.855-.027-1.212h5.578c-.024.951-.041,1.949-.054,2.994-.012,1.046-.017,2.275-.017,3.689,0,.938.003,1.791.009,2.558.006.766.015,1.482.027,2.147.012.666.024,1.325.036,1.978h-5.578c.012-.368.02-.781.027-1.239.006-.458.012-.921.017-1.39s.015-.944.027-1.426.018-.93.018-1.346v-1.14l.57,2.103c-.261-.024-.553-.038-.873-.045-.321-.006-.642-.009-.962-.009-.309,0-.621.003-.935.009-.315.007-.603.021-.864.045l.57-2.103v2.477c0,.475.003.953.009,1.434.007.482.012.945.018,1.39s.015.859.027,1.239Z" fill="#fff" stroke-width="0"/>
      <path d="m112.722,13.58h-10.907c.024-.653.038-1.307.045-1.96.006-.653.009-1.366.009-2.139V3.19c0-.546-.007-1.066-.018-1.559s-.017-.965-.017-1.417h10.889c-.012.214-.018.487-.018.819v1.988c0,.363.006.645.018.846-.416.012-.847.015-1.292.009-.445-.006-.883-.012-1.31-.017-.428-.006-.847-.012-1.257-.018-.41-.006-.799-.009-1.168-.009h-1.016l.642-2.834v2.29c0,.387.003.773.009,1.159.007.386.009.764.009,1.131v4.794c0,.381-.003.755-.009,1.123-.006.368-.009.707-.009,1.015l-.677-2.958h1.078c.386,0,.79-.003,1.212-.009.422-.007.847-.007,1.274,0,.428.006.853.006,1.275,0,.421-.007.835-.003,1.239.009,0,.226-.004.529-.009.909-.006.381-.009.767-.009,1.159,0,.297.003.632.009,1.007s.009.693.009.954Zm-5.899-5.436v-2.994h1.185c.398,0,.796-.003,1.194-.009.398-.006.793-.009,1.185-.009s.769-.006,1.132-.018c.362-.012.716-.017,1.06-.017,0,.238-.003.555-.009.954-.007.398-.009.796-.009,1.194v1.007c-.333-.012-.681-.024-1.043-.036-.363-.012-.74-.021-1.132-.027-.392-.006-.787-.012-1.185-.018l-1.194-.017c-.398-.006-.793-.009-1.185-.009Z" fill="#fff" stroke-width="0"/>
      <path d="m123.825,13.58h-5.49c.012-.653.027-1.31.045-1.97.017-.659.029-1.372.036-2.139.006-.767.009-1.624.009-2.575,0-1.414-.003-2.647-.009-3.698-.007-1.052-.033-2.046-.08-2.985h7.717c.831,0,1.562.075,2.191.223.63.149,1.152.404,1.569.767.416.363.734.876.954,1.542s.33,1.527.33,2.584c0,.796-.06,1.497-.178,2.103-.119.606-.303,1.129-.553,1.569s-.6.79-1.052,1.052c-.452.262-1.004.449-1.658.561-.653.113-1.437.17-2.352.17h-.294c-.101,0-.223.006-.365.017-.143.012-.285.018-.428.018-.142,0-.294-.006-.454-.018-.161-.012-.324-.017-.49-.017l.036-3.262c.083,0,.163.003.241.009.077.007.16.012.249.018s.19.006.303,0c.112-.006.216-.009.312-.009.332,0,.597-.033.793-.098.197-.065.36-.173.49-.321.131-.148.223-.35.276-.606.054-.256.08-.574.08-.954,0-.428-.033-.775-.099-1.043s-.154-.466-.267-.597c-.113-.131-.268-.223-.463-.276-.197-.054-.431-.08-.704-.08h-.268c-.107,0-.226.004-.356.009-.131.006-.262.009-.392.009s-.252.003-.365.009c-.112.007-.193.009-.24.009l.713-1.194v3.359c0,1.075.009,2.097.027,3.065.017.969.044,1.848.08,2.638s.071,1.494.107,2.112Z" fill="#fff" stroke-width="0"/>
      <path d="m140.952,13.58h-8.875c.012-.261.02-.621.027-1.078.006-.457.009-.986.009-1.586s.003-1.242.009-1.925.009-1.381.009-2.094V1.872c0-.666-.03-1.218-.088-1.658h5.809v.784c0,.333-.006.719-.017,1.159-.012.439-.021.915-.027,1.426-.006.511-.009,1.054-.009,1.631v2.816c0,.374.003.733.009,1.078.006.345.009.677.009.999v.819l-.73-2.317c.273,0,.558-.003.855-.009.297-.006.615-.009.954-.009s.686-.012,1.043-.036c.356-.024.695-.03,1.016-.018v5.044Z" fill="#fff" stroke-width="0"/>
      <path d="m156.199,13.58h-6.113c.012-.249.003-.57-.027-.962s-.068-.84-.116-1.346c-.047-.505-.104-1.025-.169-1.559s-.133-1.102-.205-1.702c-.071-.6-.154-1.194-.249-1.782s-.196-1.155-.303-1.702c-.071-.344-.139-.703-.205-1.078-.065-.375-.122-.734-.17-1.078-.047-.344-.095-.624-.142-.838l.57.713h-.998l.588-.749c-.036.238-.08.526-.133.864-.054.339-.116.698-.188,1.078-.071.381-.136.761-.196,1.141-.119.618-.238,1.286-.356,2.005-.119.719-.214,1.423-.286,2.112-.071.69-.142,1.343-.213,1.961-.072.618-.125,1.182-.161,1.693-.036.511-.065.921-.089,1.23h-5.578c.143-.499.282-1.072.419-1.72.136-.647.288-1.351.454-2.112.167-.76.327-1.527.482-2.299s.306-1.529.455-2.273c.148-.742.285-1.449.41-2.12s.228-1.247.312-1.729c.083-.482.149-.852.196-1.114h9.143c.059.262.136.636.231,1.123.095.487.208,1.058.339,1.711s.27,1.36.419,2.12c.148.761.312,1.53.49,2.308.178.778.347,1.539.508,2.281.16.743.315,1.444.463,2.103.149.66.288,1.233.419,1.72Zm-11.602-5.489c.261.012.555.02.882.026.326.007.68.012,1.06.018s.755.012,1.123.018c.368.006.689.009.962.009.261,0,.561-.003.9-.009s.692-.009,1.06-.009.719-.003,1.052-.009.624-.02.873-.044l.197,3.118c-.333-.012-.684-.017-1.052-.017s-.734-.003-1.096-.009c-.363-.007-.713-.009-1.052-.009h-1.818c-.338,0-.689.003-1.052.009-.362.006-.73.009-1.104.009s-.716.006-1.025.017l.089-3.118Z" fill="#fff" stroke-width="0"/>
      <path d="m164.806,5.97v-.534c0-.428-.045-.772-.133-1.034-.089-.261-.226-.439-.41-.534s-.407-.143-.668-.143c-.191,0-.363.021-.517.062-.154.042-.279.125-.374.25s-.184.3-.268.526-.139.505-.169.838c-.03.332-.045.743-.045,1.229,0,.463.015.864.045,1.203s.08.624.152.856c.071.231.166.418.285.561s.255.241.41.294c.154.053.333.08.534.08.273,0,.5-.065.677-.196.178-.131.303-.327.374-.588.072-.261.107-.558.107-.891,0-.071-.003-.169-.009-.294-.007-.125-.009-.246-.009-.365.297,0,.591.006.883.017.291.012.585.018.882.018h2.246c.439,0,.885-.012,1.337-.036-.012.131-.012.261,0,.392.012.131.018.253.018.365v.347c0,.832-.08,1.548-.241,2.148s-.422,1.111-.784,1.532c-.363.422-.806.761-1.328,1.016-.523.256-1.156.437-1.899.544-.743.107-1.571.16-2.486.16-.986,0-1.856-.075-2.611-.223-.755-.149-1.394-.398-1.916-.748-.523-.351-.954-.814-1.292-1.39-.339-.577-.585-1.263-.74-2.059-.154-.796-.231-1.729-.231-2.798,0-.999.088-1.856.267-2.576.178-.719.437-1.337.775-1.854.339-.516.775-.933,1.31-1.247.534-.315,1.182-.543,1.942-.686.761-.143,1.634-.214,2.62-.214.962,0,1.809.054,2.54.16.731.107,1.358.273,1.88.499.523.226.938.517,1.247.874.309.356.537.787.686,1.292.149.505.223,1.091.223,1.756v.41c0,.143-.004.3-.009.473-.006.172-.021.342-.044.508-.428-.012-.867-.018-1.319-.018h-2.21c-.309,0-.606.004-.891.009s-.564.009-.838.009Z" fill="#fff" stroke-width="0"/>
      <path d="m182.192,13.58h-10.907c.024-.653.038-1.307.045-1.96.006-.653.009-1.366.009-2.139V3.19c0-.546-.007-1.066-.018-1.559s-.017-.965-.017-1.417h10.889c-.012.214-.018.487-.018.819v1.988c0,.363.006.645.018.846-.416.012-.847.015-1.292.009-.445-.006-.883-.012-1.31-.017-.428-.006-.847-.012-1.257-.018-.41-.006-.799-.009-1.168-.009h-1.016l.642-2.834v2.29c0,.387.003.773.009,1.159.007.386.009.764.009,1.131v4.794c0,.381-.003.755-.009,1.123-.006.368-.009.707-.009,1.015l-.677-2.958h1.078c.386,0,.79-.003,1.212-.009.422-.007.847-.007,1.274,0,.428.006.853.006,1.275,0,.421-.007.835-.003,1.239.009,0,.226-.004.529-.009.909-.006.381-.009.767-.009,1.159,0,.297.003.632.009,1.007s.009.693.009.954Zm-5.899-5.436v-2.994h1.185c.398,0,.796-.003,1.194-.009.398-.006.793-.009,1.185-.009s.769-.006,1.132-.018c.362-.012.716-.017,1.06-.017,0,.238-.003.555-.009.954-.007.398-.009.796-.009,1.194v1.007c-.333-.012-.681-.024-1.043-.036-.363-.012-.74-.021-1.132-.027-.392-.006-.787-.012-1.185-.018l-1.194-.017c-.398-.006-.793-.009-1.185-.009Z" fill="#fff" stroke-width="0"/>
    </g>
    <g>
      <path d="m34.292,26.336c0,.135-.027.374-.08.717s-.186.77-.398,1.282c-.164.415-.294.768-.391,1.057s-.154.507-.174.652c-.174,1.101-.34,2.284-.5,3.548s-.336,2.636-.529,4.113c-.048.406-.099.828-.152,1.267s-.099.852-.138,1.238-.07.727-.094,1.021-.036.495-.036.601c0,.077.019.171.058.282s.082.224.13.34.092.227.13.333.058.198.058.275c0,.222-.068.444-.203.666s-.357.439-.666.652c-.251.183-.502.321-.753.413s-.502.147-.753.167c-.463,0-.823-.116-1.079-.348s-.444-.507-.565-.826-.191-.652-.21-.999-.029-.637-.029-.869c0-.463.012-.905.036-1.325s.06-.833.109-1.238c.077-.657.188-1.424.333-2.303s.299-1.81.463-2.795c.029-.154.075-.401.138-.739s.135-.727.217-1.166.169-.903.261-1.39.181-.953.268-1.398.164-.842.232-1.195.116-.616.145-.789c.058-.319.101-.565.13-.739s.058-.336.087-.485.063-.316.101-.5.092-.439.159-.768l-.014.029c.019-.154.077-.326.174-.514s.215-.367.355-.536.299-.309.478-.42.355-.167.529-.167c.406,0,.748.094,1.028.282s.505.418.673.688.29.558.362.862.109.572.109.804v.217Z" fill="#fff" stroke-width="0"/>
      <path d="m69.574,32.173c0,.183-.06.379-.181.587s-.275.415-.463.623-.403.413-.645.616-.483.389-.724.558-.471.316-.688.442-.398.222-.543.29c-.261.106-.596.205-1.007.297s-.84.169-1.289.232-.883.113-1.304.152-.775.058-1.065.058c-.068,0-.162-.007-.282-.022s-.251-.036-.391-.065-.28-.065-.42-.109-.258-.099-.355-.167c.106.222.167.466.181.731s.022.529.022.789c0,.183-.019.401-.058.652s-.089.507-.152.768-.138.512-.224.753-.179.444-.275.608c-.241.415-.5.797-.775,1.144s-.582.671-.92.97-.719.579-1.144.84-.917.517-1.477.768c-.599.261-1.197.442-1.796.543s-1.217.152-1.854.152c-.473,0-.893-.123-1.26-.369s-.676-.577-.927-.992-.442-.893-.572-1.434-.196-1.106-.196-1.695c0-.145.012-.326.036-.543s.058-.437.101-.659.092-.439.145-.652.104-.391.152-.536c.135-.406.331-.869.587-1.39s.558-1.055.905-1.6.734-1.081,1.159-1.608.876-.995,1.354-1.405.975-.741,1.492-.992,1.036-.377,1.557-.377c.222,0,.401.022.536.065s.246.101.333.174.167.154.239.246.152.181.239.268c.068-.019.138-.034.21-.043s.147-.014.224-.014c.299,0,.594.116.883.348s.584.488.883.768c.135.126.273.253.413.384s.268.246.384.348.22.183.311.246.157.094.196.094c.251,0,.524-.002.818-.007s.594-.014.898-.029.599-.036.883-.065.543-.063.775-.101c.029-.01.154-.041.377-.094s.49-.121.804-.203.654-.171,1.021-.268.707-.186,1.021-.268.584-.15.811-.203.36-.08.398-.08c.193,0,.348.024.463.072s.174.183.174.406Zm-16.714,9.66c.782,0,1.475-.208,2.078-.623s1.113-.968,1.528-1.658.736-1.477.963-2.361.345-1.794.355-2.73c-.068-.145-.167-.294-.297-.449s-.278-.292-.442-.413-.333-.22-.507-.297-.333-.116-.478-.116c-.232,0-.483.092-.753.275s-.521.372-.753.565-.461.447-.688.76-.437.664-.63,1.05-.372.794-.536,1.224-.304.855-.42,1.275-.205.828-.268,1.224-.094.748-.094,1.057c0,.154.024.304.072.449s.113.275.196.391.181.208.297.275.241.101.377.101Z" fill="#fff" stroke-width="0"/>
      <path d="m92.501,32.158c0,.29-.06.623-.181.999s-.268.753-.442,1.13-.36.739-.558,1.086-.379.642-.543.883c-.338.492-.715,1.004-1.13,1.535s-.864,1.05-1.347,1.557-.995.985-1.535,1.434-1.108.845-1.702,1.188-1.209.613-1.847.811-1.289.297-1.955.297c-.541,0-1.026-.089-1.456-.268s-.792-.427-1.086-.746-.521-.695-.681-1.13-.239-.908-.239-1.419c0-.212.012-.466.036-.76s.053-.611.087-.949.063-.686.087-1.043.036-.7.036-1.028c0-.222-.014-.398-.043-.529s-.097-.196-.203-.196c-.087,0-.224.082-.413.246s-.401.377-.637.637-.492.555-.768.883-.541.657-.797.985-.497.64-.724.934-.413.538-.558.731c-.483.637-.949,1.255-1.398,1.854s-.857,1.207-1.224,1.825c-.126.203-.258.372-.398.507s-.275.246-.406.333-.249.147-.355.181-.193.051-.261.051c-.319,0-.608-.019-.869-.058s-.488-.116-.681-.232-.343-.28-.449-.492-.159-.492-.159-.84c0-.309.024-.652.072-1.028s.104-.775.167-1.195.13-.857.203-1.311.138-.917.196-1.39c.068-.55.13-1.048.188-1.492s.109-.859.152-1.246.08-.756.109-1.108.048-.712.058-1.079c0-.251.046-.488.138-.71s.212-.415.362-.579.321-.294.514-.391.391-.145.594-.145c.406,0,.722.053.949.159s.396.256.507.449.179.432.203.717.036.606.036.963c0,.251-.041.625-.123,1.122s-.196,1.074-.34,1.731c-.068.299-.154.63-.261.992s-.21.717-.311,1.065-.188.676-.261.985-.109.57-.109.782c.232-.357.507-.78.826-1.267s.647-.98.985-1.477.666-.97.985-1.419.599-.813.84-1.094c.367-.435.71-.809,1.028-1.122s.618-.591.898-.833.548-.451.804-.63.505-.345.746-.5c.116-.077.268-.147.456-.21s.381-.118.579-.167.386-.087.565-.116.311-.043.398-.043c.212,0,.415.041.608.123s.365.196.514.34.268.314.355.507.13.401.13.623c0,.29-.012.628-.036,1.014s-.056.794-.094,1.224-.077.867-.116,1.311-.077.864-.116,1.26-.07.756-.094,1.079-.036.582-.036.775c0,.28.058.526.174.739s.266.319.449.319c.55,0,1.122-.118,1.716-.355s1.188-.553,1.781-.949,1.171-.857,1.731-1.383,1.077-1.084,1.55-1.673c.55-.695.995-1.328,1.332-1.897s.628-1.055.869-1.456.466-.712.673-.934.456-.333.746-.333c.077,0,.147.029.21.087s.116.128.159.21.077.174.101.275.036.196.036.282Z" fill="#fff" stroke-width="0"/>
      <path d="m102.219,38.415c-.753,1.052-1.516,2.006-2.288,2.86s-1.538,1.584-2.296,2.187-1.501,1.069-2.23,1.398-1.427.492-2.093.492c-1.159,0-2.074-.463-2.745-1.39s-1.007-2.284-1.007-4.07c0-.937.056-1.965.167-3.085s.258-2.255.442-3.404.386-2.276.608-3.382.439-2.117.652-3.034c.174-.753.36-1.405.558-1.955s.415-1.002.652-1.354.5-.613.789-.782.623-.253.999-.253c.27,0,.49.053.659.159s.304.244.406.413.171.365.21.587.058.449.058.681c0,.27-.063.654-.188,1.151s-.273,1.021-.442,1.571-.336,1.084-.5,1.6-.285.934-.362,1.253c-.135.599-.275,1.296-.42,2.093s-.278,1.62-.398,2.469-.22,1.692-.297,2.527-.116,1.6-.116,2.296c0,.531.039.973.116,1.325s.174.632.29.84.241.352.377.435.261.123.377.123c.425,0,.925-.169,1.499-.507s1.183-.785,1.825-1.34,1.299-1.197,1.97-1.926,1.311-1.485,1.919-2.267c.164-.251.321-.451.471-.601s.35-.224.601-.224c.222,0,.391.075.507.224s.174.316.174.5c0,.164-.024.348-.072.55s-.116.41-.203.623-.186.422-.297.63-.229.403-.355.587h-.014Z" fill="#fff" stroke-width="0"/>
      <path d="m115.587,32.636c-.01.164-.068.422-.174.775s-.239.765-.398,1.238-.343.992-.55,1.557-.415,1.147-.623,1.745-.413,1.2-.616,1.803-.381,1.176-.536,1.716c-.01.029-.051.162-.123.398s-.167.541-.282.912-.246.792-.391,1.26-.292.949-.442,1.441-.299.973-.449,1.441-.282.891-.398,1.267-.212.688-.29.934-.121.384-.13.413c-.077.261-.162.565-.253.912s-.217.673-.377.978-.369.562-.63.775-.603.319-1.028.319c-.241,0-.456-.048-.645-.145s-.348-.22-.478-.369-.232-.319-.304-.507-.109-.374-.109-.558c0-.212.053-.495.159-.847s.239-.739.398-1.159.333-.864.521-1.332.365-.929.529-1.383c.145-.377.275-.719.391-1.028s.244-.657.384-1.043.282-.772.427-1.159l.413-1.101.326-.869c-.222.183-.478.381-.768.594s-.596.427-.92.645-.664.425-1.021.623-.712.374-1.065.529-.7.278-1.043.369-.669.138-.978.138c-.666,0-1.255-.111-1.767-.333s-.941-.505-1.289-.847-.611-.719-.789-1.13-.268-.809-.268-1.195c0-.29.031-.647.094-1.072s.15-.881.261-1.369.244-.995.398-1.521.319-1.036.492-1.528.355-.949.543-1.369.379-.77.572-1.05c.299-.435.587-.739.862-.912s.572-.261.891-.261c.299,0,.543.043.731.13s.336.208.442.362.179.328.217.521.058.401.058.623c0,.135-.056.328-.167.579s-.249.55-.413.898c-.145.299-.314.654-.507,1.065s-.372.855-.536,1.332-.304.978-.42,1.499-.174,1.048-.174,1.579c0,.183.048.338.145.463s.21.224.34.297.266.126.406.159.253.051.34.051c.348,0,.71-.07,1.086-.21s.751-.314,1.122-.521.734-.43,1.086-.666.688-.451,1.007-.645c.261-.164.55-.374.869-.63s.594-.543.826-.862c.106-.145.234-.403.384-.775s.307-.794.471-1.267.326-.958.485-1.456.297-.949.413-1.354c.087-.29.2-.543.34-.76s.29-.396.449-.536.323-.246.492-.319.326-.109.471-.109c.328,0,.591.029.789.087s.35.157.456.297.176.328.21.565.051.529.051.876v.029Z" fill="#fff" stroke-width="0"/>
      <path d="m148.566,33.911c0,.077-.029.198-.087.362s-.154.357-.29.579c-.377.599-.847,1.25-1.412,1.955s-1.188,1.407-1.868,2.107-1.41,1.376-2.187,2.028-1.564,1.229-2.361,1.731-1.591.905-2.383,1.209-1.545.456-2.259.456c-.908,0-1.699-.126-2.375-.377s-1.236-.616-1.68-1.094-.777-1.062-.999-1.752-.333-1.475-.333-2.354c0-.666.051-1.371.152-2.115s.287-1.499.558-2.267.635-1.54,1.094-2.317,1.045-1.528,1.76-2.252c.55-.56,1.144-.985,1.781-1.275s1.246-.435,1.825-.435c.106,0,.241.022.406.065s.328.104.492.181.323.169.478.275.28.222.377.348c.309.396.541.77.695,1.122s.232.751.232,1.195c0,.695-.097,1.323-.29,1.883s-.456,1.084-.789,1.571-.727.958-1.18,1.412-.941.927-1.463,1.419c-.319.299-.715.625-1.188.978s-.98.736-1.521,1.151c.077.299.174.558.29.775s.261.398.435.543.384.253.63.326.538.109.876.109c.454,0,.939-.077,1.456-.232s1.036-.352,1.557-.594c.454-.212.903-.48,1.347-.804s.893-.659,1.347-1.007c.28-.212.64-.519,1.079-.92s.886-.818,1.34-1.253c.309-.29.618-.572.927-.847s.637-.582.985-.92l.768-.753c.56-.454,1.014-.681,1.361-.681.183,0,.299.053.348.159s.072.208.072.304Zm-11.239-1.564c0-.425-.065-.724-.196-.898s-.278-.261-.442-.261c-.145,0-.314.087-.507.261s-.393.408-.601.702-.415.637-.623,1.028-.401.804-.579,1.238-.328.881-.449,1.34-.205.9-.253,1.325c.28-.232.533-.442.76-.63s.442-.389.645-.601c.203-.203.432-.451.688-.746s.5-.601.731-.92.427-.637.587-.956.239-.613.239-.883Z" fill="#fff" stroke-width="0"/>
      <path d="m167.713,38.198c0,.154-.056.328-.167.521s-.258.386-.442.579-.398.381-.645.565-.505.348-.775.492c-.521.261-1.069.451-1.644.572s-1.151.181-1.731.181c-.357,0-.748-.063-1.173-.188s-.83-.316-1.217-.572-.722-.582-1.007-.978-.466-.864-.543-1.405c-.029.164-.077.34-.145.529s-.145.377-.232.565-.176.377-.268.565-.181.365-.268.529c-.241.463-.505.934-.789,1.412s-.572.934-.862,1.369-.562.833-.818,1.195-.476.659-.659.891c-.241.319-.492.572-.753.76s-.512.336-.753.442-.459.176-.652.21-.343.051-.449.051c-.145,0-.304-.036-.478-.109s-.34-.164-.5-.275-.299-.237-.42-.377-.205-.282-.253-.427c-.01-.55-.099-1.248-.268-2.093s-.485-1.89-.949-3.136c-.502-1.342-.852-2.523-1.05-3.541s-.297-1.89-.297-2.614c0-.637.198-1.154.594-1.55s.937-.594,1.622-.594c.29,0,.531.043.724.13s.352.205.478.355.215.326.268.529.08.415.08.637c0,.28-.041.555-.123.826s-.123.541-.123.811c0,.328.036.7.109,1.115s.164.855.275,1.318.237.937.377,1.419.278.951.413,1.405.261.883.377,1.289.208.758.275,1.057c.145-.193.316-.444.514-.753s.398-.635.601-.978.398-.676.587-.999.34-.596.456-.818c.135-.261.29-.572.463-.934s.345-.739.514-1.13.323-.78.463-1.166.244-.729.311-1.028c.087-.435.282-.801.587-1.101s.702-.449,1.195-.449c.154,0,.319.027.492.08s.338.15.492.29.282.323.384.55.157.514.167.862c.01.579.101,1.103.275,1.571s.393.869.659,1.202.555.589.869.768.616.268.905.268c.232,0,.476-.017.731-.051s.509-.08.76-.138.492-.128.724-.21.435-.167.608-.253c.29-.154.55-.28.782-.377s.468-.145.71-.145c.251.019.415.075.492.167s.116.196.116.311Z" fill="#fff" stroke-width="0"/>
      <path d="m183.732,33.911c0,.077-.029.198-.087.362s-.154.357-.29.579c-.377.599-.847,1.25-1.412,1.955s-1.188,1.407-1.868,2.107-1.41,1.376-2.187,2.028-1.564,1.229-2.361,1.731-1.591.905-2.383,1.209-1.545.456-2.259.456c-.908,0-1.699-.126-2.375-.377s-1.236-.616-1.68-1.094-.777-1.062-.999-1.752-.333-1.475-.333-2.354c0-.666.051-1.371.152-2.115s.287-1.499.558-2.267.635-1.54,1.094-2.317,1.045-1.528,1.76-2.252c.55-.56,1.144-.985,1.781-1.275s1.246-.435,1.825-.435c.106,0,.241.022.406.065s.328.104.492.181.323.169.478.275.28.222.377.348c.309.396.541.77.695,1.122s.232.751.232,1.195c0,.695-.097,1.323-.29,1.883s-.456,1.084-.789,1.571-.727.958-1.18,1.412-.941.927-1.463,1.419c-.319.299-.715.625-1.188.978s-.98.736-1.521,1.151c.077.299.174.558.29.775s.261.398.435.543.384.253.63.326.538.109.876.109c.454,0,.939-.077,1.456-.232s1.036-.352,1.557-.594c.454-.212.903-.48,1.347-.804s.893-.659,1.347-1.007c.28-.212.64-.519,1.079-.92s.886-.818,1.34-1.253c.309-.29.618-.572.927-.847s.637-.582.985-.92l.768-.753c.56-.454,1.014-.681,1.361-.681.183,0,.299.053.348.159s.072.208.072.304Zm-11.239-1.564c0-.425-.065-.724-.196-.898s-.278-.261-.442-.261c-.145,0-.314.087-.507.261s-.393.408-.601.702-.415.637-.623,1.028-.401.804-.579,1.238-.328.881-.449,1.34-.205.9-.253,1.325c.28-.232.533-.442.76-.63s.442-.389.645-.601c.203-.203.432-.451.688-.746s.5-.601.731-.92.427-.637.587-.956.239-.613.239-.883Z" fill="#fff" stroke-width="0"/>
      <path d="m195.377,32.81c0,.396-.126.722-.377.978s-.565.384-.941.384c-.261,0-.495-.048-.702-.145s-.398-.205-.572-.326-.336-.229-.485-.326-.302-.145-.456-.145c-.174,0-.362.058-.565.174s-.415.273-.637.471-.451.427-.688.688-.471.536-.702.826c-.164.203-.348.447-.55.731s-.406.582-.608.891-.396.623-.579.941-.343.613-.478.883c-.116.241-.244.521-.384.84s-.27.642-.391.97-.229.642-.326.941-.159.55-.188.753c-.058.377-.116.724-.174,1.043s-.138.591-.239.818-.237.403-.406.529-.398.188-.688.188c-.521,0-.912-.111-1.173-.333s-.447-.507-.558-.855-.176-.729-.196-1.144-.048-.816-.087-1.202c-.029-.251-.053-.502-.072-.753s-.036-.514-.051-.789-.027-.57-.036-.883-.014-.659-.014-1.036c0-.492.019-1.043.058-1.651s.084-1.192.138-1.752.111-1.057.174-1.492.118-.724.167-.869c.097-.261.227-.509.391-.746s.345-.444.543-.623.406-.321.623-.427.427-.159.63-.159c.183,0,.369.024.558.072s.357.13.507.246.273.268.369.456.145.422.145.702c0,.068-.024.176-.072.326s-.111.365-.188.645c-.087.299-.183.647-.29,1.043s-.205.801-.297,1.217-.171.826-.239,1.231-.106.768-.116,1.086c.048-.106.135-.282.261-.529s.258-.507.398-.782.278-.541.413-.797.237-.442.304-.558c.28-.473.603-.975.97-1.506s.785-1.021,1.253-1.47.997-.821,1.586-1.115,1.236-.442,1.941-.442c.541,0,1.007.08,1.398.239s.712.369.963.63.437.558.558.891.181.673.181,1.021Z" fill="#fff" stroke-width="0"/>
      <path d="m235.105,33.187c0,.541-.191,1.137-.572,1.789s-.879,1.306-1.492,1.963-1.299,1.294-2.057,1.912-1.516,1.166-2.274,1.644-1.475.862-2.151,1.151-1.236.435-1.68.435c-.618,0-1.142-.133-1.571-.398s-.787-.618-1.072-1.057-.509-.941-.673-1.506-.285-1.147-.362-1.745c-.145.348-.338.724-.579,1.13s-.502.806-.782,1.202-.562.77-.847,1.122-.548.654-.789.905c-.338.357-.71.702-1.115,1.036s-.84.625-1.304.876-.953.451-1.47.601-1.055.224-1.615.224c-.473,0-.891-.099-1.253-.297s-.664-.456-.905-.775-.422-.683-.543-1.094-.181-.823-.181-1.238c0-.367.031-.746.094-1.137s.133-.787.21-1.188.152-.797.224-1.188.123-.77.152-1.137c.019-.28.039-.579.058-.898s.039-.64.058-.963.046-.647.08-.97.075-.625.123-.905c.039-.203.094-.396.167-.579s.176-.345.311-.485.307-.251.514-.333.461-.123.76-.123c.608,0,1.036.181,1.282.543s.369.91.369,1.644c0,.222-.014.478-.043.768s-.068.591-.116.905-.104.63-.167.949-.133.623-.21.912c-.164.647-.319,1.277-.463,1.89s-.217,1.161-.217,1.644c0,.309.056.565.167.768s.249.304.413.304c.415,0,.847-.128,1.296-.384s.886-.575,1.311-.956.828-.797,1.209-1.246.707-.862.978-1.238c.251-.348.505-.777.76-1.289s.507-1.05.753-1.615.485-1.125.717-1.68.439-1.045.623-1.47c.251-.57.541-1.009.869-1.318s.647-.463.956-.463c.367,0,.637.072.811.217s.261.41.261.797c0,.154-.019.391-.058.71s-.082.654-.13,1.007-.092.69-.13,1.014-.058.567-.058.731c0,.154.002.343.007.565s.012.451.022.688.027.466.051.688.051.41.08.565c.039.164.101.377.188.637s.196.514.326.76.273.459.427.637.319.268.492.268c.502,0,1.036-.13,1.6-.391s1.142-.601,1.731-1.021,1.18-.896,1.774-1.427,1.171-1.062,1.731-1.593c.232-.222.461-.447.688-.673s.447-.43.659-.608.41-.326.594-.442.343-.174.478-.174c.154,0,.278.048.369.145s.138.183.138.261Z" fill="#fff" stroke-width="0"/>
      <path d="m245.533,38.372c0,.203-.101.439-.304.71s-.48.562-.833.876-.768.645-1.246.992-.99.702-1.535,1.065-1.11.729-1.695,1.101-1.166.731-1.745,1.079c-.705.435-1.393.835-2.064,1.202s-1.272.686-1.803.956c-.328.164-.62.309-.876.435s-.495.229-.717.311-.432.142-.63.181-.403.058-.616.058c-.135,0-.292-.039-.471-.116s-.35-.179-.514-.304-.302-.268-.413-.427-.167-.326-.167-.5c0-.27.051-.538.152-.804s.268-.514.5-.746.541-.442.927-.63.859-.34,1.419-.456c.435-.097.835-.203,1.202-.319s.657-.256.869-.42c.183-.135.328-.287.435-.456s.159-.393.159-.673c0-.27-.133-.611-.398-1.021s-.625-.958-1.079-1.644c-.251-.377-.471-.724-.659-1.043s-.345-.625-.471-.92-.22-.587-.282-.876-.094-.594-.094-.912c0-.338.034-.681.101-1.028s.159-.705.275-1.072c.135-.415.34-.83.616-1.246s.582-.792.92-1.13.683-.613,1.036-.826.669-.319.949-.319c.599,0,1.045.145,1.34.435s.442.743.442,1.361c0,.386-.174.809-.521,1.267s-.937.997-1.767,1.615c-.058.048-.104.082-.138.101s-.058.036-.072.051-.029.027-.043.036-.036.029-.065.058c.01.212.046.473.109.782s.157.589.282.84c.164.348.369.686.616,1.014s.471.637.673.927c.135.193.282.408.442.645s.307.485.442.746.249.529.34.804.142.548.152.818c.232-.135.553-.311.963-.529s.84-.447,1.289-.688.886-.483,1.311-.724.772-.454,1.043-.637c.154-.106.287-.205.398-.297s.217-.171.319-.239.203-.123.304-.167.22-.065.355-.065c.29,0,.502.077.637.232s.203.333.203.536Z" fill="#fff" stroke-width="0"/>
      <path d="m262.16,34.794c0,.174-.13.492-.391.956-.502.724-1.06,1.441-1.673,2.151s-1.267,1.383-1.963,2.02-1.419,1.229-2.173,1.774-1.516,1.016-2.288,1.412-1.542.707-2.31.934-1.518.34-2.252.34c-1.651,0-2.938-.466-3.86-1.398s-1.383-2.339-1.383-4.222c0-.753.053-1.494.159-2.223s.282-1.448.529-2.158.567-1.407.963-2.093.883-1.352,1.463-1.999c.212-.241.461-.473.746-.695s.589-.42.912-.594.661-.314,1.014-.42.702-.159,1.05-.159c.512,0,.953.097,1.325.29s.678.451.92.775.42.695.536,1.115.174.862.174,1.325c0,.859-.319,1.75-.956,2.672s-1.521,1.866-2.65,2.832c-.367.309-.792.645-1.275,1.007s-1.023.77-1.622,1.224c.019.241.089.468.21.681s.285.398.492.558.456.285.746.377.618.138.985.138c.473,0,.975-.06,1.506-.181s1.057-.282,1.579-.485,1.028-.437,1.521-.702.941-.543,1.347-.833c.715-.512,1.402-1.065,2.064-1.658s1.301-1.2,1.919-1.818l.768-.768c.531-.473.985-.71,1.361-.71.193,0,.326.065.398.196s.109.244.109.34Zm-11.297-2.665c0-.212-.022-.415-.065-.608s-.113-.314-.21-.362c-.328,0-.678.14-1.05.42s-.727.678-1.065,1.195-.64,1.139-.905,1.868-.461,1.538-.587,2.426c.454-.338.91-.693,1.369-1.065s.874-.76,1.246-1.166.676-.833.912-1.282.355-.925.355-1.427Z" fill="#fff" stroke-width="0"/>
      <path d="m280.568,39.443c0,.068-.024.171-.072.311s-.109.285-.181.435-.142.292-.21.427-.126.232-.174.29c-.367.531-.756,1.031-1.166,1.499s-.847.876-1.311,1.224-.958.62-1.485.818-1.094.297-1.702.297c-.28,0-.565-.058-.855-.174s-.57-.275-.84-.478-.519-.444-.746-.724-.422-.584-.587-.912c-.126-.261-.244-.562-.355-.905s-.21-.71-.297-1.101-.154-.797-.203-1.217-.072-.833-.072-1.238v-.435c-.212.377-.466.768-.76,1.173s-.608.811-.941,1.217-.681.801-1.043,1.188-.717.739-1.065,1.057c-.966.879-1.958,1.538-2.976,1.977s-2.069.659-3.15.659c-.377,0-.707-.097-.992-.29s-.519-.442-.702-.746-.321-.637-.413-.999-.138-.712-.138-1.05c0-.454.022-.842.065-1.166s.104-.596.181-.818c.406-1.188.864-2.315,1.376-3.382s1.139-2.117,1.883-3.15c.222-.309.471-.625.746-.949s.56-.632.855-.927.601-.567.92-.818.632-.459.941-.623c.367-.193.787-.357,1.26-.492s1.052-.203,1.738-.203c.299,0,.579.08.84.239s.49.367.688.623.365.548.5.876.227.666.275,1.014c.048-.367.106-.792.174-1.275s.135-.995.203-1.535.135-1.096.203-1.666.126-1.125.174-1.666c.068-.753.147-1.405.239-1.955s.196-.927.311-1.13c.154-.251.328-.439.521-.565s.488-.188.883-.188c.241,0,.466.029.673.087s.389.138.543.239.275.217.362.348.13.263.13.398c0,.126-.022.319-.065.579s-.104.603-.181,1.028-.171.937-.282,1.535-.239,1.304-.384,2.115c-.01.087-.034.275-.072.565s-.082.594-.13.912-.094.611-.138.876-.07.422-.08.471c-.106.734-.188,1.427-.246,2.078s-.087,1.306-.087,1.963c0,1.159.053,2.163.159,3.013s.246,1.552.42,2.107.369.968.587,1.238.437.406.659.406c.29,0,.575-.036.855-.109s.565-.198.855-.377.594-.413.912-.702.666-.652,1.043-1.086c.222-.251.437-.468.645-.652s.456-.275.746-.275c.232,0,.379.075.442.224s.094.307.094.471Zm-12.745-2.317c.145-.174.285-.372.42-.594s.266-.459.391-.71c-.193-.126-.314-.282-.362-.471s-.072-.374-.072-.558c0-.097.005-.212.014-.348s.022-.268.036-.398.027-.253.036-.369.014-.208.014-.275c0-.135-.036-.294-.109-.478s-.162-.362-.268-.536-.22-.321-.34-.442-.234-.181-.34-.181c-.097,0-.232.063-.406.188s-.369.292-.587.5-.449.451-.695.731-.492.575-.739.883-.488.623-.724.941-.447.623-.63.912c-.309.492-.582.958-.818,1.398s-.437.828-.601,1.166c-.27.57-.456,1.06-.558,1.47s-.152.78-.152,1.108c0,.599.106.898.319.898.193,0,.437-.051.731-.152s.659-.297,1.094-.587c.908-.618,1.622-1.192,2.144-1.724.55-.57,1.002-1.048,1.354-1.434s.635-.7.847-.941Z" fill="#fff" stroke-width="0"/>
      <path d="m80.697,63.051c0,.183-.06.379-.181.587s-.275.415-.463.623-.403.413-.645.616-.483.389-.724.558-.471.316-.688.442-.398.222-.543.29c-.261.106-.596.205-1.007.297s-.84.169-1.289.232-.883.113-1.304.152-.775.058-1.065.058c-.068,0-.162-.007-.282-.022s-.251-.036-.391-.065-.28-.065-.42-.109-.258-.099-.355-.167c.106.222.167.466.181.731s.022.529.022.789c0,.183-.019.401-.058.652s-.089.507-.152.768-.138.512-.224.753-.179.444-.275.608c-.241.415-.5.797-.775,1.144s-.582.671-.92.97-.719.579-1.144.84-.917.517-1.477.768c-.599.261-1.197.442-1.796.543s-1.217.152-1.854.152c-.473,0-.893-.123-1.26-.369s-.676-.577-.927-.992-.442-.893-.572-1.434-.196-1.106-.196-1.695c0-.145.012-.326.036-.543s.058-.437.101-.659.092-.439.145-.652.104-.391.152-.536c.135-.406.331-.869.587-1.39s.558-1.055.905-1.6.734-1.081,1.159-1.608.876-.995,1.354-1.405.975-.741,1.492-.992,1.036-.377,1.557-.377c.222,0,.401.022.536.065s.246.101.333.174.167.154.239.246.152.181.239.268c.068-.019.138-.034.21-.043s.147-.014.224-.014c.299,0,.594.116.883.348s.584.488.883.768c.135.126.273.253.413.384s.268.246.384.348.22.183.311.246.157.094.196.094c.251,0,.524-.002.818-.007s.594-.014.898-.029.599-.036.883-.065.543-.063.775-.101c.029-.01.154-.041.377-.094s.49-.121.804-.203.654-.171,1.021-.268.707-.186,1.021-.268.584-.15.811-.203.36-.08.398-.08c.193,0,.348.024.463.072s.174.183.174.406Zm-16.714,9.66c.782,0,1.475-.208,2.078-.623s1.113-.968,1.528-1.658.736-1.477.963-2.361.345-1.794.355-2.73c-.068-.145-.167-.294-.297-.449s-.278-.292-.442-.413-.333-.22-.507-.297-.333-.116-.478-.116c-.232,0-.483.092-.753.275s-.521.372-.753.565-.461.447-.688.76-.437.664-.63,1.05-.372.794-.536,1.224-.304.855-.42,1.275-.205.828-.268,1.224-.094.748-.094,1.057c0,.154.024.304.072.449s.113.275.196.391.181.208.297.275.241.101.377.101Z" fill="#fff" stroke-width="0"/>
      <path d="m102.48,67.31c.154,0,.263.019.326.058s.094.13.094.275c0,.367-.121.748-.362,1.144s-.572.78-.992,1.151-.91.724-1.47,1.057-1.156.628-1.789.883-1.282.456-1.948.601-1.323.217-1.97.217c-.734,0-1.376-.111-1.926-.333s-1.026-.512-1.427-.869-.736-.765-1.007-1.224-.492-.929-.666-1.412-.311-.953-.413-1.412-.186-.867-.253-1.224c-.019-.097-.039-.196-.058-.297s-.087-.152-.203-.152c-.058,0-.157.099-.297.297s-.302.449-.485.753-.377.642-.579,1.014-.391.736-.565,1.094c-.328.666-.671,1.34-1.028,2.02s-.736,1.294-1.137,1.839-.833.992-1.296,1.34-.966.521-1.506.521c-.502,0-.903-.162-1.202-.485s-.524-.739-.673-1.246-.246-1.079-.29-1.716-.065-1.265-.065-1.883c0-.743.01-1.41.029-1.999s.029-1.178.029-1.767c0-.367.053-.715.159-1.043s.246-.618.42-.869.369-.449.587-.594.437-.217.659-.217c.232,0,.456.019.673.058s.41.123.579.253.302.323.398.579.145.601.145,1.036-.036.881-.109,1.34-.152.949-.239,1.47-.169,1.089-.246,1.702-.121,1.301-.13,2.064c.126-.126.275-.328.449-.608s.36-.601.558-.963.393-.743.587-1.144.377-.785.55-1.151c.454-.985.883-1.832,1.289-2.542s.833-1.291,1.282-1.745.937-.789,1.463-1.007,1.142-.326,1.847-.326c.183,0,.35.048.5.145s.28.22.391.369.196.321.253.514.087.386.087.579c0,1.11.075,2.064.224,2.86s.389,1.448.717,1.955.751.879,1.267,1.115,1.142.355,1.876.355c.222-.019.509-.056.862-.109s.736-.128,1.151-.224.84-.222,1.275-.377.845-.338,1.231-.55c.048-.029.181-.106.398-.232s.459-.258.724-.398.519-.266.76-.377.406-.167.492-.167Z" fill="#fff" stroke-width="0"/>
      <path d="m115.052,68.512c0,.357-.14.763-.42,1.217s-.657.927-1.13,1.419c-.521.531-1.094,1.026-1.716,1.485s-1.27.855-1.941,1.188-1.354.594-2.049.782-1.371.282-2.028.282c-.811,0-1.533-.128-2.165-.384s-1.168-.632-1.608-1.13-.775-1.118-1.007-1.861-.348-1.598-.348-2.564c0-.579.056-1.168.167-1.767s.273-1.195.485-1.789.478-1.168.797-1.724.681-1.079,1.086-1.571c.261-.309.558-.62.891-.934s.702-.596,1.108-.847.852-.456,1.34-.616,1.016-.239,1.586-.239c.463,0,.876.084,1.238.253s.669.384.92.645.444.555.579.883.203.652.203.97c0,.753-.162,1.456-.485,2.107s-.775,1.275-1.354,1.868-1.277,1.176-2.093,1.745-1.716,1.154-2.701,1.752c-.048.019-.123.063-.224.13s-.152.111-.152.13c.01.193.058.401.145.623s.222.43.406.623.418.355.702.485.625.196,1.021.196c.608,0,1.221-.084,1.839-.253s1.226-.413,1.825-.731,1.183-.705,1.752-1.159,1.11-.966,1.622-1.535c.193-.222.384-.381.572-.478s.365-.145.529-.145.307.068.427.203.181.381.181.739Zm-7.024-5.547c0-.154-.029-.282-.087-.384s-.123-.181-.196-.239-.145-.099-.217-.123-.123-.036-.152-.036c-.435,0-.835.167-1.202.5s-.695.76-.985,1.282-.543,1.096-.76,1.724-.398,1.236-.543,1.825c.579-.444,1.12-.855,1.622-1.231s.939-.743,1.311-1.101.666-.715.883-1.072.326-.739.326-1.144Z" fill="#fff" stroke-width="0"/>
      <path d="m155.866,64.891c0,.126-.051.258-.152.398s-.224.278-.369.413-.292.256-.442.362-.273.183-.369.232c-.521.145-1.028.249-1.521.311s-.944.109-1.354.138-.765.051-1.065.065-.517.046-.652.094c0,.058-.017.208-.051.449s-.07.529-.109.862-.082.686-.13,1.057-.094.715-.138,1.028-.08.582-.109.804-.043.343-.043.362c-.077.686-.169,1.456-.275,2.31s-.246,1.719-.42,2.593-.396,1.726-.666,2.556-.603,1.569-.999,2.216-.869,1.166-1.419,1.557-1.192.587-1.926.587c-.309,0-.603-.058-.883-.174s-.529-.268-.746-.456-.389-.398-.514-.63-.188-.459-.188-.681c0-.126.01-.253.029-.384s.063-.244.13-.34.167-.176.297-.239.302-.094.514-.094c.048,0,.133.002.253.007s.246.01.377.014.251.01.362.014.181.007.21.007c.203,0,.398-.08.587-.239s.367-.384.536-.673.321-.637.456-1.043.246-.85.333-1.332c.232-1.284.422-2.496.572-3.635s.287-2.274.413-3.404c.019-.145.041-.355.065-.63s.051-.57.08-.883.056-.618.08-.912.041-.533.051-.717c-.628-.029-1.226-.07-1.796-.123s-1.115-.118-1.637-.196c-.502-.068-1.033-.162-1.593-.282s-1.086-.268-1.579-.442c.048.164.08.338.094.521s.022.386.022.608c0,.753-.203,1.588-.608,2.506-.174.415-.386.823-.637,1.224s-.526.785-.826,1.151-.613.712-.941,1.036-.661.611-.999.862c-.377.28-.792.521-1.246.724s-.934.372-1.441.507-1.031.237-1.571.304-1.086.101-1.637.101c-.29,0-.575-.06-.855-.181s-.546-.28-.797-.478-.485-.425-.702-.681-.406-.521-.565-.797-.282-.55-.369-.826-.13-.524-.13-.746c0-.772.104-1.516.311-2.23s.485-1.405.833-2.071.753-1.32,1.217-1.963.951-1.277,1.463-1.905c.299-.367.642-.724,1.028-1.072s.794-.659,1.224-.934.864-.495,1.304-.659.862-.246,1.267-.246c.377,0,.7.046.97.138s.521.224.753.398.454.381.666.623.439.512.681.811c.048.048.169.123.362.224s.442.212.746.333.649.244,1.036.369.794.239,1.224.34.869.186,1.318.253.881.101,1.296.101c.859,0,1.487-.014,1.883-.043s.637-.087.724-.174c.039-.039.072-.126.101-.261s.06-.302.094-.5.065-.418.094-.659.063-.483.101-.724c.077-.463.157-.912.239-1.347s.181-.862.297-1.282.256-.838.42-1.253.357-.84.579-1.275c.512-.985,1.156-1.733,1.934-2.245s1.649-.768,2.614-.768c.444,0,.862.075,1.253.224s.734.357,1.028.623.526.587.695.963.253.792.253,1.246c0,.483-.065.958-.196,1.427s-.384.992-.76,1.571c-.473.715-.985,1.072-1.535,1.072h-.42c.116-.473.205-.917.268-1.332s.094-.797.094-1.144c0-.396-.024-.727-.072-.992s-.116-.476-.203-.63-.193-.263-.319-.326-.27-.094-.435-.094c-.154,0-.321.065-.5.196s-.352.292-.521.485-.321.398-.456.616-.241.408-.319.572c-.145.319-.287.702-.427,1.151s-.27.917-.391,1.405-.224.973-.311,1.456-.145.912-.174,1.289c0,.309.019.507.058.594s.097.13.174.13c.164,0,.401-.002.71-.007s.645-.01,1.007-.014.727-.01,1.094-.014.69-.007.97-.007c.222,0,.435.01.637.029s.381.056.536.109.275.133.362.239.13.246.13.42Zm-18.698,2.086c0-.241-.012-.5-.036-.775s-.075-.533-.152-.775-.188-.442-.333-.601-.338-.244-.579-.253c-.106,0-.244-.043-.413-.13s-.336-.181-.5-.282-.311-.196-.442-.282-.205-.13-.224-.13c-.087,0-.198.065-.333.196s-.287.292-.456.485-.34.403-.514.63-.338.442-.492.645c-.203.251-.391.492-.565.724s-.345.471-.514.717-.333.507-.492.782-.321.582-.485.92c-.077.154-.145.343-.203.565s-.109.451-.152.688-.077.476-.101.717-.036.459-.036.652c0,.087.027.196.08.326s.123.253.21.369.183.217.29.304.212.13.319.13c.435,0,.806-.022,1.115-.065s.596-.118.862-.224.536-.251.811-.435.596-.415.963-.695c.348-.261.693-.603,1.036-1.028s.654-.855.934-1.289c.077-.116.142-.266.196-.449s.094-.369.123-.558.051-.362.065-.521.022-.273.022-.34v-.014Z" fill="#fff" stroke-width="0"/>
      <path d="m183.225,59.039c.261,0,.439.063.536.188s.145.285.145.478c0,.203-.077.439-.232.71s-.362.546-.623.826-.567.548-.92.804-.727.476-1.122.659c-.521.232-1.05.447-1.586.645s-1.103.374-1.702.529-1.243.292-1.934.413-1.441.22-2.252.297c-.174.019-.297.075-.369.167s-.123.239-.152.442c-.029.241-.068.526-.116.855s-.094.652-.138.97-.082.611-.116.876-.06.456-.08.572c-.068.531-.133,1.002-.196,1.412s-.121.792-.174,1.144-.094.693-.123,1.021-.043.676-.043,1.043v.797c0,.212-.002.391-.007.536s-.01.263-.014.355-.012.167-.022.224c-.01.077-.092.176-.246.297s-.331.239-.529.355-.393.215-.587.297-.333.123-.42.123c-.348,0-.63-.087-.847-.261s-.389-.372-.514-.594-.21-.437-.253-.645-.065-.35-.065-.427c0-.879.068-1.76.203-2.643s.294-1.755.478-2.614c.058-.299.116-.589.174-.869s.111-.567.159-.862.099-.601.152-.92.104-.666.152-1.043v-.029c0-.087-.048-.147-.145-.181s-.193-.051-.29-.051c-.058,0-.183.005-.377.014s-.418.024-.673.043-.529.039-.818.058-.562.039-.818.058-.478.034-.666.043-.311.014-.369.014c-.222,0-.437-.06-.645-.181s-.393-.266-.558-.435-.297-.345-.398-.529-.152-.338-.152-.463c0-.261.051-.483.152-.666s.232-.336.391-.456.34-.21.543-.268.401-.087.594-.087c.135,0,.333-.005.594-.014s.55-.019.869-.029.649-.027.992-.051.666-.046.97-.065.567-.043.789-.072.377-.058.463-.087c.097-.039.186-.21.268-.514s.191-.756.326-1.354c.039-.174.087-.413.145-.717s.121-.637.188-.999.133-.736.196-1.122.123-.753.181-1.101.104-.654.138-.92.056-.461.065-.587c.01-.164.084-.336.224-.514s.302-.34.485-.485.367-.266.55-.362.323-.145.42-.145c.222,0,.435.056.637.167s.379.244.529.398.27.311.362.471.138.282.138.369c0,.039-.014.15-.043.333s-.065.401-.109.652-.089.521-.138.811-.099.57-.152.84-.099.509-.138.717-.068.36-.087.456c-.135.637-.244,1.147-.326,1.528s-.142.681-.181.898-.065.369-.08.456-.022.159-.022.217c0,.048.007.092.022.13s.031.068.051.087c.019.029.039.048.058.058.183-.019.427-.048.731-.087s.647-.087,1.028-.145.782-.123,1.202-.196.835-.154,1.246-.246.806-.193,1.188-.304.717-.229,1.007-.355c.348-.154.659-.302.934-.442s.526-.263.753-.369.432-.191.616-.253.357-.094.521-.094Z" fill="#fff" stroke-width="0"/>
      <path d="m206.471,64.485c0,.145-.072.352-.217.623s-.333.565-.565.883-.492.649-.782.992-.575.659-.855.949c-.531.541-1.098,1.108-1.702,1.702s-1.241,1.137-1.912,1.629-1.374.898-2.107,1.217-1.497.478-2.288.478c-.628,0-1.168-.118-1.622-.355s-.835-.591-1.144-1.065-.555-1.057-.739-1.752-.319-1.501-.406-2.419c-.029-.357-.06-.683-.094-.978s-.07-.548-.109-.76-.084-.377-.138-.492-.118-.174-.196-.174c-.27,0-.632.208-1.086.623s-.978.985-1.571,1.709-1.241,1.581-1.941,2.571-1.431,2.064-2.194,3.223c-.068.097-.196.249-.384.456s-.396.415-.623.623-.456.389-.688.543-.42.232-.565.232c-.251,0-.5-.024-.746-.072s-.463-.126-.652-.232-.34-.244-.456-.413-.174-.379-.174-.63c0-.126.019-.316.058-.572s.084-.526.138-.811.106-.562.159-.833.099-.478.138-.623c.019-.087.053-.27.101-.55s.106-.625.174-1.036.145-.867.232-1.369.174-1.014.261-1.535.174-1.04.261-1.557.167-.992.239-1.427.135-.813.188-1.137.089-.558.109-.702c.01-.087.039-.292.087-.616s.101-.707.159-1.151.123-.917.196-1.419.138-.973.196-1.412.109-.823.152-1.151.07-.536.08-.623c.029-.261.097-.546.203-.855s.241-.596.406-.862.35-.49.558-.673.427-.275.659-.275c.203,0,.422.041.659.123s.454.21.652.384.365.396.5.666.203.594.203.97c0,.27-.024.599-.072.985s-.109.797-.181,1.231-.154.879-.246,1.332-.181.886-.268,1.296-.171.787-.253,1.13-.147.616-.196.818c-.077.328-.159.664-.246,1.007s-.164.654-.232.934c-.039.154-.097.377-.174.666s-.164.623-.261.999-.2.782-.311,1.217-.222.871-.333,1.311-.217.867-.319,1.282-.186.792-.253,1.13c.348-.541.727-1.113,1.137-1.716s.823-1.195,1.238-1.774.818-1.118,1.209-1.615.741-.905,1.05-1.224c.328-.338.671-.645,1.028-.92s.717-.507,1.079-.695.719-.333,1.072-.435.683-.152.992-.152c.164,0,.338.034.521.101s.36.159.529.275.323.256.463.42.244.348.311.55c.193.521.336,1.052.427,1.593s.167,1.072.224,1.593c.048.492.111.978.188,1.456s.167.905.268,1.282.21.681.326.912.241.348.377.348c.435,0,.896-.092,1.383-.275s.968-.413,1.441-.688.927-.575,1.361-.898.816-.63,1.144-.92c1.149-1.014,2.071-1.825,2.766-2.433s1.173-.917,1.434-.927c.183,0,.323.068.42.203s.145.314.145.536Z" fill="#fff" stroke-width="0"/>
      <path d="m217.305,64.703c0,.328-.162.606-.485.833s-.847.422-1.571.587c-.319.077-.625.157-.92.239s-.589.196-.883.34-.603.338-.927.579-.683.56-1.079.956c-.512.521-.97,1.074-1.376,1.658s-.76,1.207-1.065,1.868-.565,1.366-.782,2.115-.393,1.547-.529,2.397c-.029.068-.063.126-.101.174-.029.048-.056.089-.08.123s-.046.06-.065.08c-.164.183-.35.314-.558.391s-.456.116-.746.116c-.377,0-.669-.104-.876-.311s-.36-.454-.456-.739-.154-.577-.174-.876-.029-.546-.029-.739c0-.203.017-.497.051-.883s.07-.799.109-1.238.075-.883.109-1.332.051-.842.051-1.18c0-.251-.007-.589-.022-1.014s-.029-.879-.043-1.361-.029-.961-.043-1.434-.022-.874-.022-1.202c0-.261.051-.507.152-.739s.234-.432.398-.601.355-.304.572-.406.442-.152.673-.152c.28,0,.531.053.753.159s.408.246.558.42.263.369.34.587.116.442.116.673c0,.106-.007.278-.022.514s-.034.502-.058.797-.053.601-.087.92-.065.611-.094.876-.058.492-.087.681-.053.302-.072.34c.435-.84.917-1.615,1.448-2.325s1.106-1.318,1.724-1.825,1.267-.903,1.948-1.188,1.388-.427,2.122-.427c.222,0,.459.027.71.08s.483.142.695.268.386.285.521.478.203.435.203.724Z" fill="#fff" stroke-width="0"/>
      <path d="m232.411,70.713c-.734.579-1.514,1.122-2.339,1.629s-1.654.949-2.484,1.325-1.649.673-2.455.891-1.567.326-2.281.326c-.83,0-1.574-.116-2.23-.348s-1.212-.596-1.666-1.094-.799-1.132-1.036-1.905-.355-1.695-.355-2.766c0-.956.092-1.859.275-2.708s.432-1.634.746-2.354.683-1.364,1.108-1.934.876-1.052,1.354-1.448.973-.7,1.485-.912,1.009-.319,1.492-.319c.541,0,1.028.089,1.463.268s.806.43,1.115.753.548.712.717,1.166.253.961.253,1.521c0,.406-.109.881-.326,1.427s-.577,1.149-1.079,1.81-1.161,1.364-1.977,2.107-1.823,1.516-3.02,2.317c.068.154.145.321.232.5s.22.345.398.5.418.28.717.377.695.145,1.188.145c.608,0,1.265-.087,1.97-.261s1.419-.406,2.144-.695,1.431-.62,2.122-.992,1.325-.751,1.905-1.137c.106-.077.21-.138.311-.181s.205-.065.311-.065c.222,0,.377.043.463.13s.13.285.13.594c0,.068-.024.169-.072.304s-.106.27-.174.406-.14.261-.217.377-.145.198-.203.246h.014Zm-7.647-7.691c0-.367-.065-.628-.196-.782s-.355-.232-.673-.232c-.212,0-.432.097-.659.29s-.451.447-.673.76-.435.678-.637,1.094-.379.842-.529,1.282-.27.876-.362,1.311-.138.835-.138,1.202c.512-.425,1.002-.85,1.47-1.275s.879-.842,1.231-1.253.635-.818.847-1.224.319-.797.319-1.173Z" fill="#fff" stroke-width="0"/>
      <path d="m246.286,68.512c0,.357-.14.763-.42,1.217s-.657.927-1.13,1.419c-.521.531-1.094,1.026-1.716,1.485s-1.27.855-1.941,1.188-1.354.594-2.049.782-1.371.282-2.028.282c-.811,0-1.533-.128-2.165-.384s-1.168-.632-1.608-1.13-.775-1.118-1.007-1.861-.348-1.598-.348-2.564c0-.579.056-1.168.167-1.767s.273-1.195.485-1.789.478-1.168.797-1.724.681-1.079,1.086-1.571c.261-.309.558-.62.891-.934s.702-.596,1.108-.847.852-.456,1.34-.616,1.016-.239,1.586-.239c.463,0,.876.084,1.238.253s.669.384.92.645.444.555.579.883.203.652.203.97c0,.753-.162,1.456-.485,2.107s-.775,1.275-1.354,1.868-1.277,1.176-2.093,1.745-1.716,1.154-2.701,1.752c-.048.019-.123.063-.224.13s-.152.111-.152.13c.01.193.058.401.145.623s.222.43.406.623.418.355.702.485.625.196,1.021.196c.608,0,1.221-.084,1.839-.253s1.226-.413,1.825-.731,1.183-.705,1.752-1.159,1.11-.966,1.622-1.535c.193-.222.384-.381.572-.478s.365-.145.529-.145.307.068.427.203.181.381.181.739Zm-7.024-5.547c0-.154-.029-.282-.087-.384s-.123-.181-.196-.239-.145-.099-.217-.123-.123-.036-.152-.036c-.435,0-.835.167-1.202.5s-.695.76-.985,1.282-.543,1.096-.76,1.724-.398,1.236-.543,1.825c.579-.444,1.12-.855,1.622-1.231s.939-.743,1.311-1.101.666-.715.883-1.072.326-.739.326-1.144Z" fill="#fff" stroke-width="0"/>
      <path d="m273.863,64.703c0,.097-.039.215-.116.355s-.174.282-.29.427-.249.282-.398.413-.297.234-.442.311c-.145.068-.386.15-.724.246s-.731.191-1.18.282-.932.176-1.448.253-1.021.14-1.514.188c-.435.039-.809.075-1.122.109s-.596.063-.847.087-.488.043-.71.058-.463.022-.724.022c-.019.193-.058.514-.116.963s-.123.961-.196,1.535-.15,1.183-.232,1.825-.164,1.255-.246,1.839-.154,1.11-.217,1.579-.113.818-.152,1.05c-.087.531-.188,1.081-.304,1.651s-.246,1.048-.391,1.434c-.183.492-.418.963-.702,1.412s-.611.881-.978,1.296c-.753.84-1.656,1.26-2.708,1.26-.232,0-.466-.041-.702-.123s-.449-.188-.637-.319-.34-.278-.456-.442-.174-.328-.174-.492c0-.154.034-.34.101-.558s.164-.422.29-.616.27-.36.435-.5.348-.21.55-.21c.058,0,.133.007.224.022s.188.034.29.058.203.043.304.058.191.022.268.022c.164-.116.307-.29.427-.521s.227-.492.319-.782.176-.596.253-.92.145-.64.203-.949c.126-.647.239-1.265.34-1.854s.196-1.164.282-1.724.164-1.113.232-1.658.121-1.098.159-1.658c.019-.135.041-.304.065-.507s.048-.42.072-.652.043-.461.058-.688.022-.432.022-.616c0-.068-.048-.15-.145-.246s-.203-.208-.319-.333-.222-.261-.319-.406-.145-.294-.145-.449c.029-.241.323-.71.883-1.405.241-.299.42-.553.536-.76s.198-.418.246-.63.084-.444.109-.695.065-.565.123-.941c.087-.55.169-1.052.246-1.506s.171-.886.282-1.296.249-.813.413-1.209.372-.811.623-1.246c.203-.348.451-.7.746-1.057s.623-.681.985-.97.746-.524,1.151-.702.816-.268,1.231-.268c.869,0,1.588.285,2.158.855.637.608.956,1.308.956,2.1,0,.966-.372,1.999-1.115,3.099-.463.715-.98,1.072-1.55,1.072h-.261c.126-.473.217-.917.275-1.332s.087-.797.087-1.144c0-.154-.01-.36-.029-.616s-.058-.505-.116-.746-.135-.451-.232-.63-.217-.268-.362-.268c-.097,0-.212.068-.348.203s-.273.304-.413.507-.278.425-.413.666-.256.473-.362.695c-.126.27-.261.649-.406,1.137s-.28,1.009-.406,1.564-.237,1.11-.333,1.666-.164,1.045-.203,1.47v.579c0,.058.068.104.203.138s.316.06.543.08.485.031.775.036.584.007.883.007c.502,0,.982-.01,1.441-.029s.915-.051,1.369-.094.915-.099,1.383-.167.958-.15,1.47-.246c.077-.01.152-.017.224-.022s.152-.007.239-.007c.483,0,.724.193.724.579Z" fill="#fff" stroke-width="0"/>
      <path d="m291.098,63.051c0,.183-.06.379-.181.587s-.275.415-.463.623-.403.413-.645.616-.483.389-.724.558-.471.316-.688.442-.398.222-.543.29c-.261.106-.596.205-1.007.297s-.84.169-1.289.232-.883.113-1.304.152-.775.058-1.065.058c-.068,0-.162-.007-.282-.022s-.251-.036-.391-.065-.28-.065-.42-.109-.258-.099-.355-.167c.106.222.167.466.181.731s.022.529.022.789c0,.183-.019.401-.058.652s-.089.507-.152.768-.138.512-.224.753-.179.444-.275.608c-.241.415-.5.797-.775,1.144s-.582.671-.92.97-.719.579-1.144.84-.917.517-1.477.768c-.599.261-1.197.442-1.796.543s-1.217.152-1.854.152c-.473,0-.893-.123-1.26-.369s-.676-.577-.927-.992-.442-.893-.572-1.434-.196-1.106-.196-1.695c0-.145.012-.326.036-.543s.058-.437.101-.659.092-.439.145-.652.104-.391.152-.536c.135-.406.331-.869.587-1.39s.558-1.055.905-1.6.734-1.081,1.159-1.608.876-.995,1.354-1.405.975-.741,1.492-.992,1.036-.377,1.557-.377c.222,0,.401.022.536.065s.246.101.333.174.167.154.239.246.152.181.239.268c.068-.019.138-.034.21-.043s.147-.014.224-.014c.299,0,.594.116.883.348s.584.488.883.768c.135.126.273.253.413.384s.268.246.384.348.22.183.311.246.157.094.196.094c.251,0,.524-.002.818-.007s.594-.014.898-.029.599-.036.883-.065.543-.063.775-.101c.029-.01.154-.041.377-.094s.49-.121.804-.203.654-.171,1.021-.268.707-.186,1.021-.268.584-.15.811-.203.36-.08.398-.08c.193,0,.348.024.463.072s.174.183.174.406Zm-16.714,9.66c.782,0,1.475-.208,2.078-.623s1.113-.968,1.528-1.658.736-1.477.963-2.361.345-1.794.355-2.73c-.068-.145-.167-.294-.297-.449s-.278-.292-.442-.413-.333-.22-.507-.297-.333-.116-.478-.116c-.232,0-.483.092-.753.275s-.521.372-.753.565-.461.447-.688.76-.437.664-.63,1.05-.372.794-.536,1.224-.304.855-.42,1.275-.205.828-.268,1.224-.094.748-.094,1.057c0,.154.024.304.072.449s.113.275.196.391.181.208.297.275.241.101.377.101Z" fill="#fff" stroke-width="0"/>
      <path d="m313.576,65.325c0,.183-.034.384-.101.601s-.152.432-.253.645-.212.413-.333.601-.234.345-.34.471c-.309.386-.654.797-1.036,1.231s-.78.864-1.195,1.289-.84.833-1.275,1.224-.869.731-1.304,1.021c-.338.232-.664.447-.978.645s-.637.374-.97.529-.686.275-1.057.362-.78.13-1.224.13c-.724,0-1.325-.145-1.803-.435s-.867-.676-1.166-1.159-.529-1.036-.688-1.658-.282-1.272-.369-1.948c-.126-.917-.266-1.644-.42-2.18s-.343-.804-.565-.804c-.193,0-.381.046-.565.138s-.413.287-.688.587-.623.736-1.043,1.311-.968,1.34-1.644,2.296c-.232.328-.514.695-.847,1.101s-.683.794-1.05,1.166-.731.7-1.094.985-.698.48-1.007.587c-1.217-.27-1.825-1.434-1.825-3.491,0-.521.058-1.289.174-2.303.058-.454.123-.932.196-1.434s.164-1.007.275-1.514.244-1.004.398-1.492.333-.939.536-1.354c.116-.232.246-.415.391-.55s.292-.237.442-.304.307-.111.471-.13.328-.029.492-.029c.145,0,.285.036.42.109s.256.176.362.311.191.299.253.492.094.415.094.666c0,.222-.019.435-.058.637s-.092.413-.159.63-.138.447-.21.688-.147.517-.224.826c-.048.203-.118.463-.21.782s-.183.649-.275.992-.176.678-.253,1.007-.126.603-.145.826c.174-.203.374-.456.601-.76s.466-.632.717-.985.507-.712.768-1.079.521-.715.782-1.043c.338-.425.671-.826.999-1.202s.673-.702,1.036-.978.756-.492,1.18-.652.903-.239,1.434-.239c.628,0,1.139.128,1.535.384s.712.611.949,1.065.413.992.529,1.615.208,1.301.275,2.035c.039.377.089.763.152,1.159s.157.756.282,1.079.29.589.492.797.454.311.753.311c.444,0,.929-.118,1.456-.355s1.079-.562,1.658-.978,1.173-.898,1.781-1.448,1.217-1.139,1.825-1.767c.193-.203.379-.403.558-.601s.35-.377.514-.536.323-.287.478-.384.309-.145.463-.145c.058,0,.126.007.203.022s.15.043.217.087.123.104.167.181.065.183.065.319Z" fill="#fff" stroke-width="0"/>
      <path d="m326.278,63.037c0,.183-.039.35-.116.5s-.174.285-.29.406-.244.229-.384.326-.273.183-.398.261c-.435.193-.9.362-1.398.507s-.992.268-1.485.369-.973.186-1.441.253-.9.126-1.296.174c-.27.029-.553.06-.847.094s-.582.065-.862.094-.541.058-.782.087-.449.058-.623.087c-.212.821-.413,1.608-.601,2.361s-.35,1.463-.485,2.129c-.019.116-.048.275-.087.478s-.08.425-.123.666-.084.495-.123.76-.075.517-.109.753-.06.449-.08.637-.029.331-.029.427c0,.338.053.577.159.717s.212.253.319.34c.193.154.355.304.485.449s.196.343.196.594c0,.193-.068.374-.203.543s-.304.316-.507.442-.42.227-.652.304-.449.116-.652.116c-.348,0-.661-.084-.941-.253s-.521-.393-.724-.673-.357-.599-.463-.956-.159-.724-.159-1.101c0-.637.048-1.337.145-2.1s.237-1.53.42-2.303c.077-.338.162-.71.253-1.115s.176-.792.253-1.159.145-.693.203-.978.097-.476.116-.572c-.203.01-.495.039-.876.087s-.833.072-1.354.072c-.435,0-.801-.027-1.101-.08s-.546-.152-.739-.297-.333-.343-.42-.594-.13-.579-.13-.985c0-.232.082-.418.246-.558s.367-.246.608-.319.492-.121.753-.145.492-.036.695-.036c.097,0,.266-.012.507-.036s.505-.048.789-.072.56-.048.826-.072.471-.036.616-.036c.048,0,.109-.092.181-.275s.147-.42.224-.71.157-.611.239-.963.162-.7.239-1.043.147-.659.21-.949.113-.517.152-.681c.106-.406.196-.859.268-1.361s.181-.978.326-1.427.35-.826.616-1.13.645-.456,1.137-.456c.521,0,.908.113,1.159.34s.377.601.377,1.122c0,.241-.022.526-.065.855s-.118.657-.224.985c-.232.743-.43,1.439-.594,2.086s-.297,1.209-.398,1.687-.196.987-.282,1.528c.396,0,.775-.002,1.137-.007s.731-.014,1.108-.029.77-.036,1.18-.065.857-.072,1.34-.13c.56-.068,1.033-.135,1.419-.203s.727-.13,1.021-.188.562-.106.804-.145.492-.058.753-.058c.135,0,.263.036.384.109s.181.244.181.514Z" fill="#fff" stroke-width="0"/>
      <path d="m330.84,72.292c0,.502-.094.997-.282,1.485s-.437.949-.746,1.383-.666.835-1.072,1.202-.826.681-1.26.941-.869.466-1.304.616-.84.224-1.217.224c-.589,0-1.019-.142-1.289-.427s-.406-.669-.406-1.151c0-.232.036-.451.109-.659s.176-.391.311-.55.302-.285.5-.377.422-.138.673-.138h.261c.193,0,.41-.029.652-.087s.521-.217.84-.478c.28-.232.485-.509.616-.833s.196-.606.196-.847c0-.212-.053-.413-.159-.601s-.246-.374-.42-.558-.374-.365-.601-.543-.466-.36-.717-.543c-.328-.251-.659-.514-.992-.789s-.635-.57-.905-.883-.488-.647-.652-.999-.246-.731-.246-1.137.072-.83.217-1.275.34-.883.587-1.318.529-.845.847-1.231.649-.729.992-1.028.688-.536,1.036-.71.671-.261.97-.261c.492,0,.867.121,1.122.362s.384.628.384,1.159c0,.251-.065.509-.196.775s-.294.526-.492.782-.42.505-.666.746-.485.463-.717.666c-.203.183-.393.333-.572.449s-.345.241-.5.377c.097.174.222.35.377.529s.323.352.507.521.369.331.558.485.365.299.529.435c.357.29.719.594,1.086.912s.702.654,1.007,1.007.553.724.746,1.115.29.809.29,1.253Z" fill="#fff" stroke-width="0"/>
    </g>
  </g>
</svg>