<svg xmlns="http://www.w3.org/2000/svg">
  <path fill="#fff" d="M16.1 47.3c0-8.2 3.4-13.7 8.2-13.7 1.7 0 4 .1 5.6 2.3a5 5 0 01-.8 1.3l-1.4 1.1c-.7-2-2-3-3.5-3-2.8 0-4.5 4.3-4.7 11.8-.2 5.8 1.4 12.1 4.7 12.1 1.8 0 3.2-1.2 4-4.1l1.3.7c.7.5.8.7 1 1a7 7 0 01-6.3 4.3c-5 0-8.1-5-8.1-13.8M176.9 35.2l-.2-1.4a50.6 50.6 0 0015.2 0l-.1 1.3-.3 1.5c-1-.3-2.5-.3-3.7-.3h-1.6v.1l-.2 2.2-.3 6.7v4.3l.3 6.4c0 2.2.4 4 .6 4.6-.4 0-1-.2-2.3-.2-1.2 0-1.9.1-2.2.2.1-.6.5-2.4.6-4.6l.3-6.7v-4l-.3-6.7-.2-2.3H180.9c-1.3 0-2.7 0-3.7.3l-.3-1.4M45 49.3v-4.1l.1-6.2c.3-3.6.6-4.5.7-5a19.3 19.3 0 01-4.4 0c0 .5.4 1.4.6 5l.2 3.2c-3 .2-4.1.2-6.8 0l.1-3.2c.2-3.6.6-4.5.7-5a19.4 19.4 0 01-4.5 0c.2.5.5 1.4.7 5 .2 3.7.1 6.2.1 6.2v4s.1 2.6-.1 6.2c-.2 3.7-.5 4.5-.7 5.1a19.4 19.4 0 014.5 0c-.1-.6-.5-1.4-.7-5-.2-3.7-.1-6.2-.1-6.2v-4.1-1c2.5-.2 4-.2 6.8 0v5.1l-.2 6.1c-.2 3.7-.5 4.5-.6 5.1a19.3 19.3 0 014.4 0c-.1-.6-.4-1.4-.6-5-.3-3.7-.2-6.2-.2-6.2M126.2 43.2a158.7 158.7 0 01.4-7.2c3.8-.2 4.8 0 6.5.2.2-.3.6-1.3.6-2.2H122.6s.5 1.6.7 5c.2 3.7.1 6.7.1 6.7v3.6l-.1 6.2c-.2 3.6-.6 4.5-.7 5a19.3 19.3 0 014.5 0c-.2-.5-.5-1.4-.7-5l-.2-6.2v-3.9s5.4-.4 8 .1c.1-.2.8-1.3 1.1-2.5-1.5.3-9 .2-9 .2M130.6 3.7c-3.9 0-6.3-.3-7.4-.5l.1 1.2.3 1.4c1-.2 2.3-.3 3.6-.3h1.6l.2 3 .2 6v4.2L129 25c-.2 3.6-.5 4.5-.6 5a19.4 19.4 0 014.4 0c-.1-.5-.4-1.4-.6-5l-.2-6.2v-4.1l.2-6.2.2-2.9h1.7c1.3 0 2.5 0 3.5.4l.3-1.4.1-1.3a48 48 0 01-7.4.5M59.2 18.7v-4.1l.1-6.1c.2-3.7.6-4.5.7-5.1a13.3 13.3 0 01-4 0c.2.6.5 1.4.7 5l.2 6.2v3.6c-1.4-2.6-2-3.5-4-7.5l-4-7.4a24.9 24.9 0 01-3.8 0c.2.6.5 1.5.7 5.1l.2 6.2v4.1l-.2 6.2c-.2 3.6-.5 4.5-.6 5a15.6 15.6 0 013.9 0c-.2-.5-.5-1.4-.7-5l-.2-6.2v-4.1l.2-5.5a224 224 0 018.5 16.4c0 2.4 0 3.4-.2 4.5a8 8 0 013 0l-.4-5.1c-.2-3.7-.1-6.2-.1-6.2M102.8 27.8l-1.2-.1-.2-2.8-.2-6.2v-4.4-.4c3-.1 4.7 0 6.9.2l1-2.5c-1.4.3-6 .4-7.8.2a84.3 84.3 0 01.4-6.4c2.3 0 3.6 0 5.4.4 0-.2.6-1.5.7-2.4H97.6v.1c.2.6.5 1.5.7 5 .2 3.6.1 6.1.1 6.1v4.1s.1 2.5-.1 6.2c-.2 3.6-.6 4.5-.7 5h4.1c2.4-.2 4.6-.4 7 .1a8.1 8.1 0 001.1-2.8c-1.9.3-3.8.6-7 .6M36.3 13c-2.3.3-3.4.3-5.6 0h-.2V13c1-3 3.2-7.7 5.4-7.6h.2l.3 3.2.2 4.6h-.3zM39.5 25c-.2-3.7-.1-6.2-.1-6.2v-4.1l.1-6.1c.2-3.7.6-4.5.7-5.1h-.4l-5.5.2c-2.6 0-5.3-.2-7.9-.4L25.8 6c1.9-.4 4.2-.6 6-.6h.5l-.3.3s-1.4.8-2.8 4L27.8 14c-1.7 5.5-4.2 13.5-5.8 16a4116 4116 0 014.5 0c.1-4 1.9-10.1 3.3-14.6v-.1h.1c1.1-.3 5-.4 6.5 0h.2v3.4l-.2 6.2c-.2 3.6-.5 4.5-.6 5a19.4 19.4 0 014.2 0h.2c-.1-.5-.5-1.4-.7-5M107.7 47.4c0 5.7 1.1 11.9 4.5 11.9 3.3 0 4.5-6.2 4.5-12 0-3.5-.4-11.8-4.5-11.8-2.8 0-4.5 4.4-4.5 11.9m-3.5 0c0-8.3 3.2-13.8 8-13.8S120 39 120 47.4 117 61 112 61s-7.9-5-7.9-13.7M70.6 47.3c0 5.7 1.1 11.9 4.4 11.9 3.4 0 4.5-6.2 4.5-12 0-3.5-.4-11.9-4.5-11.9-2.8 0-4.4 4.5-4.4 12m-3.5 0c0-8.3 3.2-13.8 8-13.8 4.7 0 7.8 5.4 7.8 13.8C83 55.8 80 61 75 61c-5 0-8-5-8-13.7M52.1 47.3c0 5.7 1.1 11.9 4.5 11.9 3.3 0 4.5-6.2 4.5-12 0-3.5-.4-11.9-4.5-11.9-2.9 0-4.5 4.5-4.5 12m-3.5 0c0-8.3 3.2-13.8 8-13.8s7.9 5.4 7.9 13.8-3 13.7-8 13.7-7.9-5-7.9-13.7M154.3 43.6c-2.2.3-3.4.3-5.6 0h-.1v-.2c.3-1.9 2.8-7.5 5.3-7.5h.2a95.1 95.1 0 01.5 7.7h-.3zm3.3 11.9l-.2-6.2v-4.1l.2-6.2c.2-3.6.5-4.5.6-5h-.4l-5.5.2c-2.6 0-5.3-.2-7.9-.5l-.6 2.9c2-.4 4.2-.7 6-.7h.7l-.5.4s-1.4.8-2.8 4l-1.4 4.3c-1.7 5.5-4.2 13.5-5.8 16 .5 0 1-.2 2.3-.2l2.2.1c.1-4 1.9-10 3.3-14.5v-.1h.2c1-.3 4.9-.4 6.4 0h.2v3.4l-.2 6.1c-.2 3.7-.5 4.5-.6 5.1a19.4 19.4 0 014.3 0h.1c0-.6-.4-1.4-.6-5M89.7 58.5h-.3l-.2-3-.2-6.2v-4.1l.2-6.2c.2-3.6.5-4.4.7-5a19.4 19.4 0 01-4.5 0c.1.6.5 1.4.7 5 .2 3.7.1 6.2.1 6.2v4.1l-.1 6.2c-.2 3.6-.6 4.5-.7 5h4.1c2.4-.2 5.2-.4 7.5.1l.7-1.2.5-1.4c-2 .3-5.3.5-8.5.5M144 27.9h-.4l-.2-3c-.2-3.7-.1-6.2-.1-6.2v-4.4-.4c3-.1 4.8 0 7 .2l1-2.5c-1.4.3-6 .4-8 .2a84.3 84.3 0 01.4-6.4c2.3 0 3.8 0 5.5.2 0-.3.5-1.3.6-2.2h-10.1v.1c.1.6.4 1.5.6 5l.2 6.1v4.1l-.2 6.2c-.2 3.7-.5 4.5-.7 5h4.2c2.3-.2 4.5-.3 7 .1l.6-1.2c.3-.7.4-1 .4-1.4-1.9.3-4.7.5-7.9.5M175.4 54.4c-.4-2-.7-3.5-1.4-4.8-.7-1.4-2.2-2.8-2.7-3.2-.7-.5-1.3-.9-2-1.2l1.8.3c.7 0 1.2-.1 1.6-.3a6.2 6.2 0 003.2-3c.8-1.5.8-4.8-.5-6.4-1.7-2.4-4.8-2-8.2-1.9l-3 .2a24 24 0 01-2.4-.2c0 .6.4 1.5.6 5.1l.2 6.2v4.1l-.2 6.2c-.2 3.6-.5 4.5-.6 5a19.3 19.3 0 014.4 0c-.1-.5-.4-1.4-.6-5-.3-3.7-.2-6.2-.2-6.2v-4.1l.1-6.2.3-2.9s1-.3 2.2-.4c1.2-.2 2.6-.2 3.6.3 1 .6 1.5 1.7 1.6 3 .2 1.8-.1 3.4-.6 4.2-.4.6-1 1.1-1.9 1.1-.9 0-1.4-.5-1.6-1a2 2 0 01-.2-.8h-1l-1 .1v.8c.1 1.9 1.4 3.3 2.7 4.6a11 11 0 011.8 2.6c.7 1.6 1.6 4.3 1.6 7.7v2.3c1.9-.2 2.6-.2 4.4 0-1-2.2-1.5-4.1-2-6.2M7.7 58.8c1.6 0 2.3-.6 3-1.5 1.4-1.7 1.2-4.6.3-6.1-.8-1.4-5.7-5.6-5.7-5.6C4 44.3 2.4 43 2.1 40.7c-.2-1.4 0-6.6 5.6-7.2 3.6-.4 5.6 2 6 2.4l-1 1.3-1.4 1.3c-.2-.6-.6-2-1.7-2.7-1-.7-2.5-.7-3.6.1-1.7 1.3-1.6 3.8-.5 5.3s6.7 5.3 8.2 8c1.6 2.7.3 6.3-.1 7.3-.2.5-2.2 4.5-6.5 4.5-4.2 0-6-4.3-6.1-4.8A12.5 12.5 0 013.8 54c.5 3 1.5 4.9 3.9 4.8M63.3 16.6c0-8.3 3.5-13.7 8.2-13.7 1.7 0 4.1 0 5.7 2.3a5 5 0 01-1 1.2L75 7.6c-.7-2-2-3-3.5-3-2.8 0-4.5 4.3-4.7 11.8-.2 5.7 1.4 12 4.7 12 1.8 0 3.3-1.2 4-4.1l1.3.8c.7.5.9.6 1 1a7 7 0 01-6.3 4.2c-5 0-8-5-8-13.7M19.8 18.7v-4.1l.1-6.2c.2-3.6.6-4.5.7-5a19 19 0 01-4 0s-.9 3-5 10.6C8.3 8.9 6.3 3.4 6.3 3.4H2.4c.1.5.4 1.4.7 5 .2 3.7.1 6.2.1 6.2v4L3 24.9c-.2 3.7-.5 4.5-.6 5.1a15.6 15.6 0 013.9 0c-.1-.6-.5-1.4-.7-5-.2-3.7-.1-6.2-.1-6.2v-4.1l.1-5.3 2.8 5.5c1.6 3 1.7 3.7 2.4 5.2h.6l2.7-5.8c1-2 2.7-5 2.7-4.8l.2 5.2v4.1l-.2 6.1c-.2 3.7-.5 4.5-.6 5.1a19.3 19.3 0 014.4 0c-.1-.6-.4-1.4-.6-5-.3-3.7-.2-6.2-.2-6.2M93 18.8v-4.2-6.1c.3-3.7.6-4.5.8-5.1a19.3 19.3 0 01-4.5 0c.1.6.5 1.4.7 5l.1 3.2c-3 .3-4 .2-6.8 0l.1-3.1c.3-3.7.6-4.5.7-5.1a19.4 19.4 0 01-4.4 0c0 .6.4 1.4.6 5l.2 6.2v4.2l-.2 6.1c-.2 3.7-.5 4.5-.6 5a19.4 19.4 0 014.4 0c-.1-.5-.5-1.4-.7-5-.2-3.7-.1-6.1-.1-6.2v-4-1c2.5-.2 4-.2 6.8 0v5L90 25c-.2 3.7-.6 4.5-.7 5.1a19.3 19.3 0 014.5 0c-.2-.6-.5-1.4-.7-5.1l-.2-6.1M116.9 28.2c1.5 0 2.2-.6 3-1.5 1.4-1.7 1.2-4.6.3-6.1-.8-1.4-5.7-5.6-5.7-5.6-1.4-1.2-3-2.5-3.2-4.9-.2-1.4 0-6.6 5.6-7.2 3.6-.4 5.6 2 5.9 2.4-.1.3-.4.8-.9 1.3L120.5 8c-.2-.6-.6-2-1.7-2.7-1-.7-2.5-.7-3.6.1-1.7 1.3-1.7 3.8-.5 5.3 1 1.5 6.7 5.3 8.2 8 1.5 2.7.3 6.3-.2 7.3-.2.5-2 4.5-6.4 4.5-4.2 0-6-4.3-6.1-4.8.2-.2.7-.8 1.4-1.3l1.4-.9c.5 3 1.4 4.9 3.9 4.8M167.3 23.8c-.5-2-.8-3.5-1.5-4.8-.7-1.4-2.2-2.8-2.6-3.2l-2-1.2c.7.2 1.1.3 1.7.3.7 0 1.3-.1 1.7-.3a6.2 6.2 0 003-3c.9-1.5 1-4.8-.3-6.4-1.8-2.4-4.9-2-8.3-1.8h-3a24 24 0 01-2.4 0c.1.5.5 1.4.7 5 .2 3.7.1 6.2.1 6.2v4.1l-.1 6.2c-.3 3.6-.6 4.5-.7 5a19.3 19.3 0 014.4 0c0-.5-.4-1.4-.6-5l-.2-6.2v-4.1l.2-6.2.2-2.9s1-.3 2.3-.4c1.2-.2 2.5-.2 3.5.3 1 .6 1.6 1.7 1.7 3 0 1.8-.2 3.4-.7 4.2-.4.6-.9 1.1-1.9 1.1-.8 0-1.3-.5-1.6-1a2 2 0 01-.2-.8h-.9l-1 .1c-.1.3-.1.5 0 .8 0 1.9 1.3 3.3 2.6 4.6a11 11 0 011.8 2.6c.7 1.6 1.7 4.3 1.7 7.7l-.1 2.3c2-.2 2.6-.2 4.5 0-1.1-2.2-1.6-4.1-2-6.2"/>
</svg>
