<?xml version="1.0" encoding="UTF-8"?>
<svg id="b" data-name="Your ident" xmlns="http://www.w3.org/2000/svg" width="2000" height="2000" viewBox="0 0 2000 2000">
  <line y1="500" x2="2000" y2="1500" fill="none" stroke="#000" stroke-miterlimit="10" stroke-width="20"/>
  <line y1="1500" x2="2000" y2="500" fill="none" stroke="#000" stroke-miterlimit="10" stroke-width="20"/>
  <path d="m1000,499.33v.67H0v-.67C0,223.56,223.86,0,500,0s500,223.56,500,499.33Z" stroke-width="0"/>
  <path d="m1979.621,20c-2.278,57.887-14.807,114.051-37.33,167.231-24.173,57.075-58.784,108.339-102.871,152.366-44.089,44.03-95.424,78.596-152.581,102.739-59.166,24.992-122.028,37.664-186.839,37.664s-127.673-12.672-186.839-37.664c-57.156-24.143-108.492-58.709-152.581-102.739-44.087-44.028-78.698-95.291-102.871-152.366-22.523-53.179-35.052-109.344-37.33-167.231h959.241m20.379-20h-1000v.67c0,275.77,223.86,499.33,500,499.33S2000,276.44,2000,.67v-.67h0Z" stroke-width="0"/>
  <path d="m1000,1500.67v-.67h1000v.67c0,275.77-223.86,499.33-500,499.33s-500-223.56-500-499.33Z" stroke-width="0"/>
  <path d="m500,1520c64.811,0,127.673,12.672,186.839,37.664,57.156,24.143,108.492,58.709,152.581,102.739,44.087,44.028,78.698,95.291,102.871,152.366,22.523,53.179,35.052,109.344,37.33,167.231H20.379c2.278-57.887,14.806-114.051,37.33-167.231,24.173-57.075,58.784-108.339,102.871-152.366,44.089-44.03,95.424-78.596,152.581-102.739,59.166-24.992,122.028-37.664,186.839-37.664m0-20C223.86,1500,0,1723.56,0,1999.33v.67h1000v-.67c0-275.77-223.86-499.33-500-499.33h0Z" stroke-width="0"/>
  <line x1="10" y1="498.643" x2="10" y2="1498.643" fill="none" stroke="#000" stroke-miterlimit="10" stroke-width="20"/>
  <line x1="1990" y1="498.643" x2="1990" y2="1498.643" fill="none" stroke="#000" stroke-miterlimit="10" stroke-width="20"/>
  <line x1="20" y1="498.643" x2="2000" y2="498.643" fill="none" stroke="#000" stroke-miterlimit="10" stroke-width="20"/>
  <line x1="0" y1="1498.643" x2="1980" y2="1498.643" fill="none" stroke="#000" stroke-miterlimit="10" stroke-width="20"/>
</svg>