<?xml version="1.0" encoding="UTF-8"?>
<svg id="b" data-name="Layer 2" xmlns="http://www.w3.org/2000/svg" width="881.275" height="881.275" viewBox="0 0 881.275 881.275">
  <g id="c" data-name="Layer 2">
    <path d="m440.638,881.275c-59.479,0-117.188-11.652-171.521-34.634-52.473-22.193-99.595-53.963-140.058-94.426s-72.232-87.585-94.426-140.058C11.652,557.825,0,500.117,0,440.638s11.652-117.187,34.634-171.521c22.193-52.473,53.963-99.595,94.426-140.057,40.463-40.463,87.585-72.233,140.058-94.427C323.45,11.652,381.158,0,440.638,0s117.188,11.652,171.521,34.634c52.473,22.193,99.595,53.964,140.058,94.427,40.463,40.462,72.232,87.584,94.426,140.057,22.981,54.334,34.634,112.041,34.634,171.521s-11.652,117.188-34.634,171.521c-22.193,52.473-53.963,99.595-94.426,140.058s-87.585,72.232-140.058,94.426c-54.333,22.981-112.041,34.634-171.521,34.634Zm0-852.275C213.66,29,29,213.66,29,440.638s184.66,411.638,411.638,411.638,411.638-184.66,411.638-411.638S667.615,29,440.638,29Z" stroke-width="0"/>
    <path d="m220.215,257.059c-17.255,0-31.292-14.037-31.292-31.291s14.037-31.292,31.292-31.292,31.292,14.037,31.292,31.292-14.037,31.291-31.292,31.291Zm0-33.583c-1.264,0-2.292,1.028-2.292,2.292s1.028,2.291,2.292,2.291,2.292-1.027,2.292-2.291-1.028-2.292-2.292-2.292Z" stroke-width="0"/>
    <path d="m664.656,261.901c-17.254,0-31.291-14.037-31.291-31.292s14.037-31.292,31.291-31.292,31.292,14.037,31.292,31.292-14.037,31.292-31.292,31.292Zm0-33.584c-1.264,0-2.291,1.028-2.291,2.292s1.027,2.292,2.291,2.292,2.292-1.028,2.292-2.292-1.028-2.292-2.292-2.292Z" stroke-width="0"/>
    <path d="m440.485,772.102l-.415-.02c-75.58-3.614-139.967-23.292-191.372-58.487-41.38-28.33-74.312-66.591-97.88-113.718-39.806-79.592-39.007-156.255-38.953-159.479l28.996.48-14.498-.24,14.498.224c-.01.729-.613,73.679,36.372,146.996,48.859,96.854,137.588,149.079,263.733,155.234,5.259-.142,69.689-2.616,136.96-38.479,92.772-49.457,147.188-136.188,161.732-257.786l28.795,3.444c-8.654,72.351-31.207,134.355-67.031,184.293-28.826,40.183-66.167,72.562-110.985,96.24-75.982,40.144-146.569,41.266-149.537,41.294l-.415.004Z" stroke-width="0"/>
    <rect x="76.375" y="426.138" width="116.064" height="29" stroke-width="0"/>
    <rect x="681.448" y="426.138" width="126.826" height="29" stroke-width="0"/>
  </g>
</svg>